<svg width="87" height="87" viewBox="0 0 87 87" fill="none" xmlns="http://www.w3.org/2000/svg">
<path d="M63.4485 41.0854V44.11H68.1876V45.8058H61.7527V41.0854H63.4485ZM54.2625 22.5027L44.9814 15.1383L27.8006 28.7796H33.1327L44.4478 19.8009C44.7469 19.5512 45.1938 19.5359 45.5115 19.7907L56.83 28.7779H62.1673L54.2625 22.5027ZM47.2345 28.1526C45.2312 26.0677 41.7766 27.546 41.7766 30.5468C41.7766 33.5425 45.2295 35.0259 47.2345 32.9359C48.5022 31.6258 48.5022 29.4678 47.2345 28.1526ZM44.9814 25.4797C49.311 25.4797 51.5319 30.9172 48.4597 34.1118C46.543 36.11 43.4266 36.11 41.5099 34.1118C38.436 30.9172 40.6518 25.4797 44.9814 25.4797ZM52.9524 44.5144H48.8913V48.8066H52.9524V44.5144ZM48.0451 42.8152H53.8054C54.2727 42.8152 54.6533 43.1958 54.6533 43.6631V49.6545C54.6533 50.1218 54.2727 50.5024 53.8054 50.5024H48.0451C47.5727 50.5024 47.1921 50.1218 47.1921 49.6545V43.6631C47.1921 43.1941 47.5727 42.8152 48.0451 42.8152ZM41.0698 44.5144H37.0086V48.8066H41.0698V44.5144ZM36.1624 42.8152H41.9228C42.3901 42.8152 42.7707 43.1958 42.7707 43.6631V49.6545C42.7707 50.1218 42.3901 50.5024 41.9228 50.5024H36.1624C35.6951 50.5024 35.3145 50.1218 35.3145 49.6545V43.6631C35.3145 43.1941 35.6951 42.8152 36.1624 42.8152ZM38.5549 37.7719H51.4112V39.4728H38.5549V37.7719ZM28.2135 41.0854V45.8058H21.7734V44.11H26.5126V41.0854H28.2135ZM59.0271 58.657C60.3083 57.3656 61.2854 56.4276 62.7739 54.8558C65.9956 51.4557 69.7237 55.7666 66.7331 59.4454L65.7849 60.6111H67.355C68.1876 59.8158 68.9641 58.9832 69.5368 58.2322C69.5844 58.1693 69.6387 58.1166 69.6999 58.069C69.9072 57.9059 70.6243 56.8745 71.3668 55.7428C71.5011 55.5406 71.6319 55.3384 71.7611 55.1362V36.9817H59.0254V58.657H59.0271ZM55.0238 76.5022V80.3798C55.0238 80.5429 55.158 80.6686 55.3126 80.6686H68.2505C68.4051 80.6686 68.5393 80.5344 68.5393 80.3798V76.5022C68.5393 76.4257 68.5054 76.3526 68.4527 76.3V76.2949L68.2505 76.2133H55.3126C55.1546 76.2133 55.0238 76.3441 55.0238 76.5022ZM56.7009 74.5124H66.7093C66.869 73.2703 67.4756 72.1861 68.4578 71.3722L73.9157 66.8353C74.4016 66.2236 75.7219 63.8243 76.8774 61.4794C77.8069 59.5915 78.6072 57.7751 78.7414 57.0138C79.4874 52.7556 79.5741 50.3954 80.0091 46.8355C80.3217 44.268 77.9564 43.8449 77.2631 46.3155C77.258 46.3291 77.2529 46.3495 77.2478 46.3682L74.874 53.1447C74.6718 53.7088 73.4382 55.668 72.784 56.6706C72.0227 57.8261 71.2479 58.9203 70.8384 59.3197C70.1791 60.1676 69.287 61.1208 68.3286 62.0163C68.2845 62.0639 68.242 62.1081 68.1944 62.1421C67.0814 63.1684 65.892 64.1081 64.886 64.7096C63.8223 65.3502 62.242 66.0486 61.4995 64.8404C61.3211 64.5567 61.2395 64.1896 61.2684 63.7376C61.2786 63.5643 61.3414 63.3961 61.457 63.2517L65.4213 58.3766C66.9387 56.5126 65.7968 54.1337 64.0058 56.0215C62.9217 57.1685 61.9736 58.1115 61.1596 58.9254C57.7782 62.2882 56.796 63.2703 56.9796 68.2559C57.0186 69.379 56.8164 72.9236 56.7009 74.5124ZM32.6366 60.487C32.6756 60.5312 32.7096 60.5686 32.7419 60.6128H57.2242C57.2582 60.5686 57.2922 60.5312 57.3262 60.487V30.4788C56.7587 30.4788 56.3288 30.5604 55.9685 30.2579L44.9814 21.5392L33.9551 30.2919C33.7954 30.4177 33.6136 30.4754 33.425 30.4754V30.4805H32.6348V60.487H32.6366ZM18.2 55.1362C18.8219 56.0996 19.991 57.8617 20.2662 58.069C20.324 58.1166 20.3818 58.171 20.4294 58.2322C21.002 58.9832 21.7734 59.8175 22.6112 60.6111H24.1812L23.2331 59.4454C20.2424 55.7649 23.9654 51.454 27.1872 54.8558C28.6808 56.4259 29.6578 57.3656 30.939 58.657V36.9817H18.1983V55.1362H18.2ZM23.2535 74.5124H33.267C33.1463 72.9236 32.9492 69.3773 32.9883 68.2559C33.1718 63.2703 32.188 62.2882 28.8116 58.9254C27.9926 58.1115 27.0478 57.1668 25.9603 56.0215C24.188 54.1472 23.0122 56.4888 24.5483 58.3766L28.5074 63.2517C28.623 63.3961 28.6859 63.5643 28.6961 63.7376H28.7012C28.7742 64.9373 28.0317 65.7172 26.7454 65.442C26.2679 65.34 25.6952 65.08 25.0784 64.7096C24.0725 64.1081 22.8864 63.1684 21.7734 62.1421C21.7259 62.1081 21.6766 62.0656 21.6392 62.0163C20.6808 61.1208 19.7854 60.1676 19.1244 59.3197C18.7199 58.9203 17.9451 57.8261 17.1839 56.6706C16.5246 55.668 15.2909 53.7088 15.0938 53.1447L12.72 46.3682C12.7149 46.3495 12.7098 46.3291 12.7047 46.3155C12.0165 43.85 9.64102 44.268 9.95878 46.8355C10.3921 50.3954 10.4787 52.7556 11.2264 57.0138C11.3572 57.7751 12.161 59.5915 13.0853 61.4794C14.2408 63.8243 15.5662 66.2236 16.0522 66.8353L21.5101 71.3722C22.4922 72.1861 23.0988 73.2703 23.2535 74.5124ZM34.9424 80.3798V76.5022C34.9424 76.3424 34.8116 76.2133 34.6484 76.2133H21.7157L21.5084 76.2949V76.3C21.4557 76.3526 21.4268 76.4257 21.4268 76.5022V80.3798C21.4268 80.5344 21.5576 80.6686 21.7157 80.6686H34.6484C34.8082 80.6686 34.9424 80.5429 34.9424 80.3798ZM45.7426 14.0542C45.7426 15.0176 44.0417 15.0176 44.0417 14.0542V6.28535C44.0417 5.54789 45.1734 5.27432 45.6169 5.90473H51.7052V9.81633H45.7426V14.0542Z" fill="#9B1B2F"/>
</svg>
