<svg width="72" height="72" viewBox="0 0 72 72" fill="none" xmlns="http://www.w3.org/2000/svg">
<path fill-rule="evenodd" clip-rule="evenodd" d="M17.0729 30.3271C17.0729 30.2865 17.0753 30.2465 17.0801 30.207C15.9657 29.6787 15.4543 28.0652 16.5594 26.096C17.8941 23.7175 21.3272 21.743 22.5289 21.0341C26.2541 18.8363 28.013 22.0951 34.6675 8.22311C35.3723 6.84719 37.3385 7.14801 37.7522 7.9799C44.4065 21.8518 45.746 18.8362 49.4713 21.0341C50.673 21.743 54.1061 23.7175 55.4408 26.096C56.5459 28.0652 56.0345 29.6788 54.9201 30.207L54.9273 40.9169C54.27 40.9232 53.607 40.9412 52.9419 40.9725V30.3271C52.9419 30.2541 52.9499 30.1831 52.9648 30.1147C52.9211 30.0934 52.8775 30.0715 52.8337 30.0476C51.8295 29.5011 51.38 28.2992 51.7795 27.2278C51.7795 27.2278 50.6462 26.7139 48.3795 25.6857C48.6492 27.8541 48.4387 30.579 47.7478 33.8606L49.0151 41.3244C46.2541 41.7025 43.5843 42.3743 41.2741 43.4654C39.5487 39.2023 39.0459 34.8785 39.4051 28.7132C39.5425 26.3549 39.8524 23.8998 38.7554 19.7221L36.2474 13.3858C34.3169 17.9276 33.245 19.7221 33.245 19.7221C32.148 23.8998 32.5795 26.351 32.5952 28.7132C32.6321 34.2809 33.8257 37.9021 31.7023 43.9629C29.1845 42.573 26.1442 41.757 22.9853 41.3244L24.2526 33.8606C23.5617 30.579 23.3512 27.8541 23.6209 25.6857C21.3543 26.7137 20.221 27.2278 20.221 27.2278C20.6205 28.2992 20.1711 29.5011 19.1668 30.0476C19.123 30.0714 19.0794 30.0934 19.0358 30.1147C19.0507 30.1831 19.0587 30.2542 19.0587 30.3271V40.9725C18.3935 40.9412 17.7305 40.9234 17.0732 40.9169V30.3271H17.0729ZM33.4083 64.7266C32.4783 58.442 27.6213 55.245 21.7466 55.3205L19.7614 55.346H4.28297L4.23242 51.1724L22.0088 51.2558C24.9262 51.2695 27.0643 51.3364 29.7561 52.717C32.2851 54.014 34.3664 56.2429 36.0001 59.4036C37.6338 56.2429 39.7152 54.014 42.2441 52.717C44.9357 51.3364 47.074 51.2695 49.9914 51.2558L67.7678 51.1724L67.7171 55.3504H52.5922L50.2538 55.3203C49.8538 55.3151 49.4595 55.3255 49.0714 55.3504H49.0638V55.351C43.6341 55.7009 39.4445 58.9661 38.5921 64.7266C36.8641 64.7266 35.1361 64.7266 33.4083 64.7266ZM8.15109 49.2054L22.0181 49.2705C25.2668 49.2857 27.6946 49.4283 30.6622 50.9504C32.8402 52.0674 34.5906 53.7003 36.0001 55.6237C37.4096 53.7003 39.1601 52.0674 41.3381 50.9504C44.3057 49.4284 46.7334 49.2857 49.9821 49.2705L63.8491 49.2054V43.4673H48.084C42.1299 44.4924 36.9278 47.1034 36 52.8683C35.0723 47.1034 29.87 44.4924 23.9159 43.4673H8.15109V49.2054ZM47.81 10.78C45.5115 10.78 43.6482 12.6432 43.6482 14.9417C43.6482 17.2402 45.5115 19.1035 47.81 19.1035C50.1085 19.1035 51.9717 17.2402 51.9717 14.9417C51.9717 12.6432 50.1085 10.78 47.81 10.78ZM24.4633 10.78C22.1647 10.78 20.3015 12.6432 20.3015 14.9417C20.3015 17.2402 22.1647 19.1035 24.4633 19.1035C26.7618 19.1035 28.625 17.2402 28.625 14.9417C28.625 12.6432 26.7618 10.78 24.4633 10.78Z" fill="#9B1B2F"/>
</svg>
