<svg width="52" height="59" viewBox="0 0 52 59" fill="none" xmlns="http://www.w3.org/2000/svg">
<path fill-rule="evenodd" clip-rule="evenodd" d="M48.1083 34.8169V44.4299C48.1083 44.9437 47.6917 45.3603 47.1779 45.3603H32.1697C31.9167 45.3603 31.7061 45.5708 31.7061 45.8238V49.1671C31.7061 49.4201 31.9167 49.6306 32.1697 49.6306H35.4987C35.7517 49.6306 35.9586 49.4099 35.9606 49.2265C35.9659 48.7174 36.3804 48.3061 36.8909 48.3061H51.8319C51.9001 48.3061 51.9558 48.2504 51.9558 48.1821C51.9558 47.8443 51.933 46.1628 51.9775 45.9598L51.9803 34.8169C51.9803 34.7486 51.9246 34.6929 51.8563 34.6929H48.2323C48.164 34.6928 48.1083 34.7485 48.1083 34.8169ZM14.8733 53.4138H16.3313C16.6708 53.4138 16.8298 53.4 16.8298 53.8773L16.8299 56.2357C16.8299 56.3041 16.8857 56.3597 16.9539 56.3597H33.1155C33.1839 56.3597 33.2394 56.304 33.2394 56.2357V51.6154C33.2394 51.5471 33.2952 51.4914 33.3634 51.4914H35.4987C36.3786 51.4914 37.1672 50.9898 37.5597 50.2338C37.5816 50.1916 37.6222 50.1669 37.6698 50.1669H48.011C48.0792 50.1669 48.135 50.2226 48.135 50.2908V55.367C48.135 55.9126 47.6877 56.3597 47.1422 56.3597H35.2241C35.1558 56.3597 35.1001 56.4155 35.1001 56.4837V57.2901C35.1001 57.8039 34.6835 58.2205 34.1697 58.2205H13.0371C12.7873 58.2205 12.5832 58.0219 12.5717 57.7829C12.5488 57.2944 12.1735 56.3597 11.5908 56.3597H3.49898C1.57672 56.3597 0.00683607 54.7897 0.00683607 52.8674V47.7698C0.00683607 47.7014 0.0625641 47.6459 0.13082 47.6459H3.79C3.85826 47.6459 3.91399 47.7016 3.91399 47.7698V50.9447C3.91399 52.3058 5.02192 53.4138 6.38301 53.4138H14.8733ZM17.4585 36.178L17.6258 36.1718H27.7613C27.8295 36.1718 27.8852 36.1161 27.8852 36.0478V34.699C27.8852 28.0747 33.3086 22.6513 39.9327 22.6513C45.8353 22.6513 50.8401 26.9754 51.811 32.6873C51.8239 32.7633 51.7659 32.8321 51.6886 32.8321H47.1778C46.664 32.8321 46.2474 33.2487 46.2474 33.7625V43.3755C46.2474 43.4438 46.1917 43.4995 46.1234 43.4995C41.8701 43.4995 37.6166 43.4995 33.3633 43.4995C33.295 43.4995 33.2393 43.4438 33.2393 43.3755V38.9222C33.2393 38.3616 32.7907 38.0327 32.2548 38.0327L17.5977 38.0362C17.1316 38.1478 16.7339 38.3017 16.7339 38.9222V51.4292C16.7339 51.4974 16.6781 51.5532 16.6099 51.5532H6.38301C6.04922 51.5532 5.77476 51.2787 5.77476 50.9449V46.7156C5.77476 46.2018 5.35816 45.7852 4.84437 45.7852H0.13082C-0.0438519 45.7852 0.00683607 45.5211 0.00683607 45.2736C0.00683607 39.1781 4.99759 34.1873 11.0931 34.1873C13.3826 34.1873 15.5528 34.8857 17.3832 36.156C17.4061 36.1719 17.4304 36.1791 17.4585 36.178ZM27.7018 20.1828V3.64392C27.7018 1.64174 26.0602 0 24.058 0H6.65042C4.6481 0 3.00664 1.6416 3.00664 3.64392V12.2842C3.00664 14.2864 4.64824 15.9281 6.65042 15.9281H20.3463C22.2557 15.9281 23.9417 16.6395 25.2791 18.0082L27.4889 20.2694C27.5669 20.3491 27.7018 20.2941 27.7018 20.1828ZM18.6112 8.85859C19.105 8.99309 19.3961 9.50242 19.2618 9.99619C18.5097 12.7542 15.1909 13.9 12.8981 12.1509C12.2032 11.6208 11.6847 10.8675 11.4466 9.99619C11.3121 9.50242 11.6034 8.99309 12.0972 8.85859C12.591 8.7241 13.1003 9.01541 13.2348 9.50918C13.6419 11.0023 15.4521 11.6149 16.6838 10.6753C17.0635 10.3856 17.3459 9.9779 17.4737 9.50918C17.6081 9.01541 18.1174 8.7241 18.6112 8.85859ZM21.2005 4.68461C21.361 5.17032 21.0974 5.69434 20.6117 5.8549C20.1259 6.01546 19.6019 5.75179 19.4414 5.26608C19.2373 4.6512 18.3448 4.6512 18.1408 5.26608C17.9802 5.75179 17.4562 6.01546 16.9705 5.8549C16.4848 5.69434 16.2211 5.17032 16.3817 4.68461C16.9153 3.07613 18.8675 2.41042 20.274 3.42389C20.7015 3.7319 21.0295 4.17154 21.2005 4.68461ZM14.3268 4.68461C14.4873 5.17032 14.2237 5.69434 13.738 5.8549C13.2522 6.01546 12.7282 5.75179 12.5677 5.26608C12.3636 4.6512 11.471 4.65106 11.2669 5.26608C11.1064 5.75179 10.5823 6.01546 10.0966 5.8549C9.61092 5.69434 9.34725 5.17032 9.50781 4.68461C10.0416 3.07598 11.9938 2.41056 13.4001 3.42389C13.8277 3.7319 14.1558 4.17154 14.3268 4.68461ZM34.1628 15.0205C34.1628 18.2074 36.746 20.7906 39.9329 20.7906C43.1197 20.7906 45.7029 18.2074 45.7029 15.0205C45.7029 11.8336 43.1197 9.25042 39.9329 9.25042C36.746 9.25042 34.1628 11.8336 34.1628 15.0205ZM7.7477 24.2503C5.90018 26.0978 5.90018 29.0935 7.7477 30.941C9.59522 32.7885 12.591 32.7885 14.4384 30.941C16.2859 29.0935 16.2859 26.0978 14.4384 24.2503C12.5909 22.4028 9.59508 22.4028 7.7477 24.2503ZM21.1869 43.0796H26.8253C27.339 43.0796 27.7556 42.663 27.7556 42.1492C27.7556 41.6354 27.339 41.2188 26.8253 41.2188H21.1869C20.6731 41.2188 20.2565 41.6354 20.2565 42.1492C20.2565 42.663 20.6731 43.0796 21.1869 43.0796ZM21.1869 53.1734H26.8253C27.339 53.1734 27.7556 52.7568 27.7556 52.2431C27.7556 51.7293 27.339 51.3127 26.8253 51.3127H21.1869C20.6731 51.3127 20.2565 51.7293 20.2565 52.2431C20.2565 52.7568 20.6731 53.1734 21.1869 53.1734ZM21.1869 48.1265H26.8253C27.339 48.1265 27.7556 47.7099 27.7556 47.1961C27.7556 46.6824 27.339 46.2658 26.8253 46.2658H21.1869C20.6731 46.2658 20.2565 46.6824 20.2565 47.1961C20.2565 47.7099 20.6731 48.1265 21.1869 48.1265Z" fill="#9B1B2F"/>
</svg>
