<svg width="72" height="72" viewBox="0 0 72 72" fill="none" xmlns="http://www.w3.org/2000/svg">
<path d="M62.5357 63.7177H43.1644L43.1587 63.7166H28.8397L28.8341 63.7177H9.46273L9.45711 63.7166H7.44336V67.4999H64.5551V63.7166H62.5414L62.5357 63.7177Z" fill="#9B1B2F"/>
<path d="M48.1035 43.0222C48.105 44.279 48.6045 45.4841 49.4926 46.3735C50.3807 47.2629 51.5851 47.7641 52.842 47.7674H52.8578C53.7962 47.7658 54.7132 47.4861 55.4927 46.9636C56.2722 46.4411 56.8793 45.6992 57.2373 44.8317C57.5953 43.9642 57.6881 43.01 57.504 42.0898C57.3199 41.1696 56.8671 40.3246 56.2029 39.6617C55.5387 38.9987 54.6928 38.5475 53.7723 38.3651C52.8517 38.1828 51.8977 38.2774 51.0309 38.637C50.1641 38.9967 49.4234 39.6052 48.9023 40.3857C48.3813 41.1662 48.1033 42.0837 48.1035 43.0222Z" fill="#9B1B2F"/>
<path d="M35.9997 44.4083C39.4157 44.4083 42.185 41.6391 42.185 38.2231C42.185 34.8071 39.4157 32.0378 35.9997 32.0378C32.5837 32.0378 29.8145 34.8071 29.8145 38.2231C29.8145 41.6391 32.5837 44.4083 35.9997 44.4083Z" fill="#9B1B2F"/>
<path d="M22.8124 57.6C22.8142 55.5459 23.2994 53.5211 24.2287 51.6892C22.7609 50.6104 20.9879 50.0265 19.1662 50.022H19.1438C16.876 50.0273 14.7029 50.9312 13.1003 52.5357C11.4978 54.1402 10.5964 56.3144 10.5938 58.5821V61.4711H22.8124V57.6Z" fill="#9B1B2F"/>
<path d="M19.1436 47.7676H19.1594C20.4172 47.7655 21.6228 47.2641 22.5111 46.3736C23.3994 45.483 23.8978 44.2762 23.8967 43.0184C23.8957 41.7606 23.3953 40.5546 22.5055 39.6656C21.6157 38.7765 20.4093 38.2771 19.1515 38.2771C17.8937 38.2771 16.6873 38.7765 15.7975 39.6656C14.9077 40.5546 14.4073 41.7606 14.4063 43.0184C14.4052 44.2762 14.9036 45.483 15.7919 46.3736C16.6802 47.2641 17.8858 47.7655 19.1436 47.7676Z" fill="#9B1B2F"/>
<path d="M46.9392 57.6C46.9392 54.699 45.7868 51.9167 43.7355 49.8654C41.6841 47.8141 38.9019 46.6616 36.0009 46.6616C33.0998 46.6616 30.3176 47.8141 28.2663 49.8654C26.2149 51.9167 25.0625 54.699 25.0625 57.6V61.4711H46.9392V57.6Z" fill="#9B1B2F"/>
<path d="M61.4123 61.4667V58.5777C61.4097 56.31 60.5083 54.1358 58.9058 52.5313C57.3032 50.9268 55.1301 50.0229 52.8623 50.0176H52.8398C51.0182 50.0221 49.2452 50.606 47.7773 51.6848C48.7058 53.5184 49.1895 55.5448 49.1892 57.6001V61.4712L61.4123 61.4667Z" fill="#9B1B2F"/>
<path d="M56.0019 15.0063C54.1591 10.9957 50.1058 7.79165 45.041 6.01978C47.4178 8.40504 48.7523 11.6351 48.7523 15.0023C48.7523 18.3696 47.4178 21.5996 45.041 23.9849C50.1024 22.213 54.1558 19.0124 56.0019 15.0063Z" fill="#9B1B2F"/>
<path d="M36.0054 4.5H35.9998C33.2332 4.52863 30.5896 5.64775 28.6434 7.61423C26.6972 9.5807 25.6055 12.2357 25.6055 15.0024C25.6055 17.7692 26.6972 20.4242 28.6434 22.3906C30.5896 24.3571 33.2332 25.4762 35.9998 25.5049H36.0065C37.6705 25.5024 39.31 25.1039 40.7895 24.3423C42.269 23.5808 43.546 22.478 44.5149 21.1252C43.7759 21.4089 42.9912 21.5549 42.1996 21.5561C41.2371 21.5598 40.2856 21.3513 39.4127 20.9457C38.5398 20.54 37.767 19.9471 37.1491 19.209C36.5313 18.471 36.0836 17.6059 35.8378 16.6752C35.5921 15.7446 35.5543 14.7712 35.7273 13.8243C35.9002 12.8774 36.2796 11.9803 36.8384 11.1966C37.3973 10.4129 38.1219 9.76188 38.9608 9.28986C39.7996 8.81784 40.7322 8.53638 41.6921 8.46548C42.652 8.39458 43.6158 8.53597 44.5149 8.87963C43.5459 7.52662 42.2688 6.42373 40.7891 5.66216C39.3093 4.90059 37.6696 4.50222 36.0054 4.5Z" fill="#9B1B2F"/>
<path d="M37.8945 15.0019C37.8943 15.8532 38.1466 16.6855 38.6194 17.3935C39.0922 18.1015 39.7644 18.6533 40.5508 18.9793C41.3373 19.3052 42.2028 19.3906 43.0378 19.2247C43.8728 19.0587 44.6399 18.6489 45.242 18.0469C45.844 17.445 46.2541 16.6781 46.4202 15.8431C46.5864 15.0081 46.5012 14.1426 46.1755 13.3561C45.8498 12.5695 45.2981 11.8972 44.5902 11.4242C43.8824 10.9512 43.0501 10.6987 42.1988 10.6987C41.0579 10.7002 39.9641 11.154 39.1573 11.9607C38.3504 12.7673 37.8963 13.8609 37.8945 15.0019Z" fill="#9B1B2F"/>
<path d="M23.2487 15.0018C23.2471 11.6335 24.5823 8.40223 26.9612 6.01758C21.8987 7.78945 17.8408 10.9946 15.998 15.0063C17.8442 19.0136 21.8987 22.2153 26.9612 23.9872C24.582 21.6023 23.2468 18.3705 23.2487 15.0018Z" fill="#9B1B2F"/>
</svg>
