<svg width="64" height="64" viewBox="0 0 64 64" fill="none" xmlns="http://www.w3.org/2000/svg">
<path d="M32 64C49.6731 64 64 49.6731 64 32C64 14.3269 49.6731 0 32 0C14.3269 0 0 14.3269 0 32C0 49.6731 14.3269 64 32 64Z" fill="#0F4D81"/>
<path d="M62.6756 31.6298C62.6083 25.9211 60.9824 20.5885 58.202 16.0359C54.9708 10.7443 50.1812 6.50627 44.4695 3.9629C42.1105 2.91072 39.5935 2.14975 36.9638 1.72244C35.3482 1.45903 33.6887 1.32147 31.9985 1.32147C30.3083 1.32147 28.6781 1.4561 27.0771 1.71512C24.4415 2.13951 21.9201 2.89901 19.5553 3.94972C13.8378 6.49017 9.04081 10.7267 5.80524 16.0227C2.96041 20.6763 1.32141 26.1465 1.32141 31.9986C1.32141 36.4985 2.29164 40.7731 4.03308 44.6247C4.38575 45.4047 4.77063 46.1671 5.18477 46.912C6.26621 48.8539 7.554 50.6656 9.01593 52.3192C11.5183 55.145 14.5329 57.507 17.9134 59.2601C18.2616 59.4386 18.6143 59.6128 18.9699 59.7796C19.308 59.9391 19.6504 60.0913 19.9943 60.2391C20.6206 60.5055 21.2587 60.7528 21.9055 60.9767C22.7879 61.284 23.6908 61.5532 24.6084 61.7801C25.0664 61.8957 25.5303 61.9981 25.9971 62.0888C26.0074 62.0918 26.0147 62.0932 26.0249 62.0947C26.1801 62.1254 26.3337 62.1562 26.4903 62.184C28.0942 62.4752 29.7449 62.6405 31.4249 62.6727C31.6166 62.6771 31.8083 62.6786 32.0014 62.6786C34.5126 62.6786 36.955 62.3757 39.292 61.8064C41.2984 61.3176 43.2271 60.6328 45.0578 59.7694C45.4222 59.5981 45.7822 59.4211 46.1393 59.2352C49.4934 57.4894 52.4831 55.1436 54.9694 52.3397C56.4415 50.6773 57.7352 48.8554 58.8225 46.9032C59.2396 46.1554 59.6259 45.3857 59.9815 44.6013C60.4381 43.5857 60.8434 42.5408 61.1888 41.4711C61.221 41.3701 61.2546 41.2692 61.2854 41.1667C61.5224 40.4087 61.7302 39.6389 61.9088 38.8575C61.9088 38.8472 61.9132 38.837 61.9161 38.8268C61.9644 38.6146 62.0098 38.4009 62.0522 38.1873C62.4619 36.1883 62.6771 34.119 62.6771 32C62.6771 31.8771 62.6771 31.7527 62.6741 31.6298H62.6756ZM60.6547 38.0731C60.4761 38.9219 60.2595 39.7575 60.0093 40.577C59.9991 40.6077 59.9903 40.6399 59.98 40.6706C59.6347 41.7843 59.2264 42.8686 58.7566 43.9208C58.3966 44.7272 58.0015 45.5145 57.5727 46.2798C56.1445 48.8305 54.3489 51.1456 52.2533 53.1519C50.2792 55.0441 48.0402 56.6611 45.6007 57.9416C45.2085 58.1479 44.8105 58.3455 44.4066 58.5343C42.7661 59.3025 41.0437 59.923 39.2569 60.3781C36.9375 60.9693 34.5068 61.284 32.0029 61.284C31.719 61.284 31.4351 61.2796 31.1527 61.2723C29.4976 61.2254 27.8761 61.041 26.3015 60.7293C26.1874 60.7074 26.0732 60.684 25.9591 60.6591C25.9035 60.6489 25.8479 60.6357 25.7937 60.624C25.384 60.5362 24.9771 60.4396 24.5733 60.3328C23.7494 60.1177 22.9401 59.8674 22.1469 59.585C21.5484 59.3713 20.9572 59.1372 20.3762 58.8855C20.1245 58.7757 19.8743 58.6645 19.6255 58.5474C19.2319 58.3645 18.8411 58.1713 18.4577 57.9694C15.9934 56.6816 13.7339 55.0528 11.7437 53.1431C9.65689 51.1427 7.86424 48.8364 6.44036 46.293C6.01305 45.532 5.61939 44.7491 5.26086 43.9472C3.62918 40.2989 2.72041 36.2556 2.72041 32C2.72041 26.3572 4.31551 21.089 7.08132 16.6183C10.1954 11.5799 14.7963 7.55699 20.2694 5.15995C21.7679 4.50435 23.3323 3.97021 24.9493 3.57071C27.2088 3.01169 29.5707 2.71462 32.0044 2.71462C34.438 2.71462 36.8336 3.01608 39.1062 3.58388C40.7159 3.98338 42.273 4.51752 43.7656 5.17312C49.2314 7.57308 53.825 11.5945 56.9332 16.63C59.5805 20.9134 61.1537 25.927 61.2795 31.3005C61.2854 31.5332 61.2883 31.7673 61.2883 32.0015C61.2883 33.9434 61.0995 35.8429 60.7381 37.6795C60.7117 37.8082 60.6854 37.937 60.659 38.0658V38.076L60.6547 38.0731Z" fill="white"/>
<path d="M41.0262 43.8389C39.9477 45.0886 38.7653 46.2476 37.4921 47.3013C36.8672 47.8193 36.219 48.3125 35.5502 48.7778C34.4278 49.5593 33.2483 50.2632 32.019 50.8836C30.7898 50.2646 29.6088 49.5578 28.4864 48.7778C28.4308 48.7383 28.3737 48.7003 28.3181 48.6607C28.2903 48.6403 28.2625 48.6198 28.2332 48.6007C28.1366 48.5305 28.0401 48.4617 27.9435 48.3915C27.901 48.3607 27.8571 48.3271 27.8132 48.2949C27.6376 48.1676 27.4664 48.0359 27.2937 47.9042C27.1562 47.7973 27.0186 47.6891 26.884 47.5793C26.7742 47.4915 26.6659 47.4037 26.5591 47.3159C25.2801 46.2593 24.0933 45.0974 23.0089 43.8418C25.1294 44.1433 27.1752 44.6715 29.123 45.4032C29.1288 45.4032 29.1332 45.4076 29.1391 45.4091C29.1917 45.4296 29.2459 45.4486 29.2971 45.4705C29.3191 45.4779 29.3395 45.4852 29.36 45.494C29.4727 45.5364 29.581 45.5803 29.6922 45.6242C29.7478 45.6462 29.8049 45.6696 29.8605 45.693C29.8883 45.7032 29.9147 45.7149 29.9425 45.7266C30.6478 46.0149 31.34 46.331 32.0176 46.6735C32.9556 46.1993 33.9214 45.7749 34.9151 45.4032C36.8614 44.673 38.9072 44.1433 41.0262 43.8418V43.8389Z" fill="white"/>
<path d="M8.75113 31.1381L8.45845 31.0283C8.15114 30.9142 7.98431 30.8542 7.94773 30.8425L6.10531 30.1883C6.06727 30.1737 6.04093 30.1561 6.02629 30.1356C6.01897 30.1254 6.00141 30.0873 5.98824 29.9703L5.98239 29.9088L5.71752 29.9117L5.72191 29.9834C5.72776 30.0712 5.73215 30.143 5.73508 30.1986C5.738 30.2527 5.73947 30.2995 5.73947 30.3391C5.73947 30.3786 5.738 30.4254 5.73361 30.4825C5.73069 30.5395 5.72483 30.6127 5.71752 30.702L5.71166 30.7751H5.98385V30.6844C5.98385 30.5864 5.99995 30.5469 6.01019 30.5322C6.01751 30.5205 6.03068 30.5088 6.06727 30.5073C6.09068 30.5073 6.11702 30.5103 6.14483 30.5147C6.17556 30.5205 6.20483 30.5278 6.23556 30.5366L7.82919 31.0751L6.19165 31.5742C6.08629 31.6063 6.04678 31.6107 6.03068 31.6107C6.01897 31.6107 6.01166 31.6093 6.00434 31.5917C5.99702 31.5756 5.98385 31.5288 5.98093 31.4117V31.3444H5.7102L5.71459 31.4161C5.72044 31.5303 5.72483 31.6283 5.72776 31.7102C5.73069 31.7907 5.73215 31.8654 5.73215 31.9312C5.73215 31.9722 5.73069 32.0263 5.7263 32.0907L5.70727 32.4566H5.978V32.3893C5.978 32.2927 5.99556 32.2459 6.01166 32.2254C6.0219 32.2122 6.05849 32.1756 6.19751 32.1302L6.36141 32.0746L7.8248 32.5736L6.22678 33.058C6.21361 33.0624 6.20336 33.0654 6.19165 33.0683C6.08336 33.1019 6.04239 33.1063 6.02776 33.1063C6.01458 33.1063 6.00873 33.1034 6.00141 33.0873C5.9941 33.0697 5.97946 33.0244 5.978 32.9073V32.84H5.70727L5.71166 32.9117C5.71752 33.0258 5.72191 33.1239 5.72483 33.2058C5.72776 33.2863 5.72922 33.361 5.72922 33.4268C5.72922 33.4692 5.72776 33.5219 5.72337 33.5878L5.70435 33.9522H5.97361V33.8849C5.97361 33.7883 5.99117 33.7414 6.00727 33.7209C6.01605 33.7078 6.0541 33.6712 6.19312 33.6258L8.7043 32.7873L8.74527 32.6322L8.26674 32.4537C8.15699 32.4127 8.05748 32.3776 7.96675 32.3454L6.79457 31.9298L8.71015 31.2888L8.75259 31.1381H8.75113Z" fill="white"/>
<path d="M8.66916 27.4854C8.5433 27.4576 8.39843 27.424 8.23453 27.383L8.16136 27.364L8.1277 27.5996L8.18916 27.6142C8.43355 27.6698 8.59306 27.7474 8.66038 27.8425C8.72769 27.9376 8.74379 28.1132 8.70867 28.3664L8.60916 29.0776L7.44576 28.9152L7.47942 28.6766C7.50868 28.4659 7.56137 28.4074 7.58917 28.3913C7.62137 28.3737 7.71795 28.3459 7.996 28.3722L8.06185 28.3781L8.09404 28.1513L8.0238 28.1439C7.89941 28.1308 7.79112 28.1176 7.69746 28.1074C7.60527 28.0957 7.52625 28.0869 7.46186 28.0781C7.41356 28.0708 7.34479 28.0605 7.25552 28.0459C7.16625 28.0313 7.0565 28.0137 6.92772 27.9918L6.85894 27.98L6.82675 28.2083L6.89113 28.22C7.11211 28.2625 7.17942 28.3093 7.20137 28.3327C7.21747 28.3503 7.24967 28.4176 7.21893 28.64L7.18528 28.8786L6.18139 28.7381L6.25749 28.1952C6.30139 27.8761 6.37602 27.7532 6.43163 27.7049C6.51065 27.6361 6.66431 27.604 6.88528 27.6113H6.94674L6.97894 27.3801L6.90577 27.3757C6.77992 27.3669 6.65553 27.3581 6.53407 27.3464C6.4126 27.3362 6.28968 27.3244 6.16529 27.3127L6.09944 27.3069L6.09066 27.3727C6.057 27.6347 6.01603 27.9405 5.97066 28.2859C5.9253 28.6327 5.87115 29.0191 5.81261 29.4464L5.80383 29.5137L6.06724 29.5503L6.07749 29.4844C6.10529 29.3044 6.13895 29.2722 6.14334 29.2693C6.14334 29.2693 6.17993 29.243 6.36285 29.2693L8.28867 29.5386C8.46867 29.5634 8.4994 29.6 8.50233 29.6044C8.50672 29.6117 8.53013 29.6542 8.50672 29.8254L8.49648 29.8927L8.75842 29.9293L9.08915 27.5703L9.02476 27.5586C8.91501 27.5381 8.79647 27.5147 8.67062 27.4869L8.66916 27.4854Z" fill="white"/>
<path d="M8.84035 25.1103C8.63987 25.0591 8.45841 25.0781 8.30036 25.1659C8.14671 25.2508 7.95208 25.4645 7.70915 25.8157C7.57598 26.0103 7.4633 26.1347 7.37111 26.1859C7.28477 26.2342 7.18672 26.2444 7.06965 26.2152C6.93502 26.1815 6.83843 26.1098 6.77551 25.9986C6.71258 25.8859 6.69941 25.7601 6.736 25.6123C6.78429 25.4206 6.87502 25.2889 7.01258 25.2098C7.1516 25.1293 7.33599 25.1059 7.55989 25.1411L7.62135 25.1513L7.67696 24.9318L7.38867 24.8689C7.32135 24.8542 7.25843 24.8396 7.19989 24.825C7.16038 24.8147 7.11209 24.8015 7.05355 24.7854L6.78136 24.7079L6.73014 24.9128L6.8238 24.9596C6.7477 25.0328 6.68185 25.1118 6.62771 25.1981C6.55746 25.3108 6.50332 25.4425 6.46673 25.5888C6.39942 25.8566 6.42283 26.0952 6.53551 26.2986C6.64966 26.5035 6.83697 26.6396 7.0916 26.704C7.22623 26.7376 7.35062 26.7435 7.45891 26.7186C7.56867 26.6937 7.67549 26.6396 7.77939 26.5547C7.87744 26.4713 8.00037 26.322 8.15402 26.0966C8.18183 26.0542 8.20232 26.0235 8.21695 26.0045C8.34426 25.823 8.45548 25.7045 8.54621 25.6518C8.63255 25.602 8.72621 25.5903 8.83304 25.6181C8.97938 25.6547 9.08181 25.7279 9.14474 25.842C9.20913 25.9562 9.22084 26.0879 9.18132 26.2459C9.12864 26.4552 9.02182 26.5971 8.85499 26.6835C8.6867 26.7698 8.47012 26.7874 8.21256 26.7347L8.14817 26.7215L8.08817 26.9586L8.15402 26.9747C8.24036 26.9966 8.33256 27.0186 8.42768 27.0391L8.46426 27.0479C8.53451 27.0639 8.57402 27.0727 8.5828 27.0742C8.59304 27.0771 8.64572 27.0918 8.74231 27.1181C8.84182 27.1459 8.93547 27.1708 9.02621 27.1942L9.09206 27.2103L9.14328 27.0069L9.02767 26.9469C9.11693 26.8722 9.19303 26.7918 9.25449 26.704C9.33498 26.5883 9.39498 26.4566 9.43157 26.3132C9.50327 26.0279 9.48425 25.7703 9.37596 25.5493C9.26474 25.324 9.08328 25.1791 8.83743 25.1162L8.84035 25.1103Z" fill="white"/>
<path d="M10.055 23.3762C9.99351 23.5445 9.95253 23.5738 9.94522 23.5767C9.94375 23.5767 9.90278 23.5972 9.72571 23.5328L7.66379 22.7733L7.75598 22.5216C7.8233 22.3372 7.90671 22.2187 8.00037 22.1704C8.09549 22.1221 8.24915 22.1206 8.45695 22.166L8.51548 22.1791L8.59597 21.9582L7.75306 21.7533L6.89551 24.0816L7.66964 24.4723L7.75159 24.2513L7.69891 24.2235C7.51306 24.1255 7.39599 24.0259 7.35501 23.9264C7.31404 23.8284 7.32721 23.685 7.39599 23.4991L7.48818 23.2474L9.5501 24.0069C9.72132 24.0698 9.74181 24.1123 9.74473 24.1167C9.74766 24.124 9.76083 24.1723 9.69937 24.3406L9.65839 24.4518L9.91156 24.5411L9.93205 24.4737C9.97888 24.3245 10.0155 24.2089 10.0433 24.1255C10.0711 24.042 10.0945 23.9762 10.1135 23.925C10.1296 23.8825 10.1516 23.824 10.1808 23.7523C10.2101 23.6791 10.2555 23.5708 10.3169 23.4274L10.3447 23.3616L10.093 23.2694L10.052 23.3791L10.055 23.3762Z" fill="white"/>
<path d="M11.217 20.4816C11.1423 20.3807 11.037 20.2972 10.9053 20.2314C10.7194 20.1392 10.538 20.1246 10.3624 20.1904C10.2482 20.2329 10.1326 20.3133 10.017 20.4275C10.0258 20.306 10.0126 20.1963 9.97602 20.0982C9.91602 19.9343 9.79456 19.8055 9.6131 19.7163C9.48578 19.6533 9.36432 19.6212 9.24871 19.6212C9.1492 19.6212 9.05555 19.6446 8.96628 19.6914C8.77896 19.788 8.60628 19.9943 8.45263 20.3031C8.43653 20.3353 8.39995 20.4143 8.33995 20.5416C8.28141 20.6675 8.22873 20.7772 8.1819 20.8709C8.13214 20.9689 8.08093 21.067 8.02678 21.165L8.00922 21.1987C8.00922 21.1987 8.00337 21.2089 7.99898 21.2148C7.9902 21.228 7.98434 21.2382 7.98142 21.2455L7.95068 21.307L8.18775 21.4255L8.21848 21.3655C8.30336 21.2045 8.3458 21.1841 8.35019 21.1826C8.35165 21.1826 8.39409 21.168 8.55946 21.2514L10.2994 22.1206C10.4619 22.2011 10.4794 22.245 10.4809 22.2509C10.4838 22.2582 10.4911 22.3065 10.4136 22.4616L10.3828 22.5231L10.6228 22.6431L10.6521 22.5787C10.677 22.5231 10.7033 22.4645 10.7311 22.406C10.7589 22.3475 10.7984 22.2684 10.8482 22.166C10.8745 22.1118 10.9155 22.0343 10.9697 21.9319C11.0238 21.8294 11.0648 21.7519 11.0897 21.7006C11.2053 21.4694 11.2784 21.2982 11.3121 21.1782C11.3472 21.0553 11.3604 20.9397 11.3487 20.8372C11.334 20.707 11.2887 20.5885 11.2126 20.4875L11.217 20.4816ZM8.99116 20.088C9.09652 20.0499 9.23993 20.0748 9.41847 20.1641C9.58529 20.2475 9.68627 20.347 9.72139 20.4611C9.75651 20.5768 9.7287 20.7275 9.63797 20.9075L9.51066 21.1621L8.56092 20.688L8.66482 20.4787C8.77457 20.2592 8.88433 20.1275 8.99116 20.0894V20.088ZM10.7545 21.7826L9.7448 21.2792L9.82968 21.1094C9.95114 20.865 10.0785 20.7099 10.2043 20.6499C10.3258 20.5928 10.4794 20.6104 10.6623 20.7011C10.8497 20.7948 10.9594 20.9045 10.9887 21.026C11.0194 21.1533 10.9741 21.3406 10.8511 21.5865L10.7531 21.7811L10.7545 21.7826Z" fill="white"/>
<path d="M12.8428 17.9324L12.7959 17.8899L12.6364 18.0377L12.6833 18.0875C12.7418 18.1504 12.7608 18.1928 12.7681 18.2177C12.7754 18.247 12.7681 18.2763 12.7491 18.307C12.6979 18.386 12.5223 18.2997 12.4228 18.2426C12.3306 18.1885 12.2589 18.1504 12.2077 18.1241C11.9969 18.0246 11.8081 17.9997 11.6457 18.0494C11.5681 18.0728 11.4906 18.1153 11.4101 18.1768C11.4481 18.0494 11.4628 17.9324 11.4511 17.8241C11.4291 17.6177 11.3164 17.448 11.116 17.3192C10.9769 17.2299 10.8394 17.1846 10.7062 17.1846C10.6199 17.1846 10.535 17.2036 10.4516 17.2416C10.2467 17.3338 10.0389 17.546 9.81793 17.8899C9.77549 17.9558 9.7272 18.0333 9.67452 18.1226C9.6233 18.2104 9.59111 18.2631 9.57794 18.2821L9.50769 18.3904C9.4755 18.4402 9.44184 18.4899 9.40818 18.5382C9.37452 18.5865 9.34087 18.6333 9.30721 18.6802L9.26331 18.7387L9.49013 18.885L9.52818 18.8294C9.63062 18.6787 9.67452 18.6626 9.67891 18.6626C9.68037 18.6626 9.72428 18.6538 9.87939 18.7533L11.5111 19.8099C11.6647 19.9094 11.6764 19.9548 11.6779 19.9592C11.6794 19.9679 11.6823 20.0162 11.5886 20.1611L11.5521 20.2182L11.7774 20.3645L11.814 20.3016C11.8857 20.1757 11.9413 20.0806 11.9823 20.0133C12.0218 19.9475 12.0555 19.8933 12.0818 19.8523C12.1008 19.8231 12.1272 19.7836 12.1638 19.7338C12.2003 19.6826 12.2647 19.5919 12.3569 19.4631L12.3994 19.4045L12.1769 19.2611L12.1389 19.3167C12.032 19.4733 11.9881 19.4821 11.9852 19.4836C11.9808 19.4836 11.9355 19.4894 11.7847 19.3914L11.0823 18.9363L11.1774 18.7899C11.3135 18.5792 11.4379 18.4563 11.5477 18.4241C11.653 18.3933 11.8023 18.4387 11.994 18.5631C12.0116 18.5748 12.0452 18.5967 12.095 18.6319C12.1462 18.667 12.1916 18.6977 12.2281 18.7211C12.3789 18.8192 12.5164 18.8602 12.6364 18.8411C12.7594 18.8221 12.8662 18.7416 12.9569 18.6026C13.0315 18.4855 13.0608 18.3699 13.0418 18.2558C13.0228 18.1446 12.9569 18.0363 12.8457 17.9353L12.8428 17.9324ZM9.98183 18.1138C10.014 18.0597 10.036 18.0216 10.0506 17.9982C10.1721 17.8109 10.2979 17.6968 10.4238 17.6602C10.5467 17.6251 10.6886 17.6587 10.8452 17.7597C11.0106 17.8665 11.1043 17.9865 11.1247 18.1168C11.1452 18.2499 11.0925 18.4138 10.9682 18.6055C10.9506 18.6333 10.9111 18.6889 10.8525 18.7738C10.8511 18.7753 10.8496 18.7782 10.8482 18.7797L9.93647 18.1899C9.94964 18.168 9.96427 18.1416 9.98037 18.1138H9.98183Z" fill="white"/>
<path d="M13.8452 15.0539C13.5101 14.7744 13.1618 14.6339 12.8091 14.6339C12.7886 14.6339 12.7696 14.6339 12.7491 14.6339C12.373 14.6515 12.0452 14.8256 11.7745 15.1505C11.5081 15.471 11.3984 15.8324 11.4525 16.2232C11.5052 16.6124 11.7101 16.9578 12.0613 17.2505C12.4008 17.5329 12.7623 17.6661 13.134 17.647C13.5086 17.6265 13.832 17.4568 14.094 17.1407C14.3618 16.8202 14.473 16.4588 14.4276 16.0666C14.3808 15.6773 14.1862 15.3349 13.8466 15.0524L13.8452 15.0539ZM13.2569 17.2241C12.9832 17.2022 12.6891 17.0617 12.3847 16.807C12.0862 16.5583 11.8959 16.2963 11.8228 16.0285C11.7511 15.7666 11.795 15.5441 11.9589 15.348C12.1359 15.1359 12.3525 15.0422 12.6203 15.0612C12.894 15.0802 13.1867 15.2207 13.494 15.4754C13.7969 15.7271 13.9871 15.9905 14.0588 16.2583C14.1291 16.5202 14.0808 16.747 13.9096 16.9519C13.7398 17.1553 13.5262 17.2446 13.2584 17.2227L13.2569 17.2241Z" fill="white"/>
<path d="M15.1037 12.3364C15.0685 12.3334 15.0334 12.332 14.9998 12.332C14.6647 12.332 14.3529 12.4637 14.072 12.7256C13.7661 13.0095 13.6139 13.3549 13.6169 13.7485C13.6198 14.1407 13.7793 14.5095 14.091 14.8446C14.3925 15.168 14.7334 15.3451 15.1051 15.3729C15.4783 15.3992 15.8207 15.2719 16.1207 14.9924C16.4266 14.7071 16.5832 14.3632 16.5861 13.9695C16.589 13.5773 16.4383 13.2144 16.1368 12.891C15.8222 12.5529 15.4739 12.3671 15.1022 12.3378L15.1037 12.3364ZM15.2822 14.9675C15.0129 14.9105 14.7393 14.7349 14.4686 14.4451C14.2037 14.1597 14.0486 13.8773 14.0091 13.6022C13.971 13.3329 14.0427 13.1193 14.2286 12.9451C14.4305 12.7564 14.6573 12.6905 14.9207 12.7432C15.1885 12.7973 15.4637 12.9715 15.7344 13.2642C16.0037 13.5524 16.1588 13.8378 16.1954 14.1115C16.2319 14.3807 16.1544 14.5988 15.9598 14.7817C15.7651 14.9632 15.5427 15.0231 15.2793 14.9675H15.2822Z" fill="white"/>
<path d="M19.191 12.1666C19.1266 12.2149 19.068 12.2383 19.0036 12.2442C18.9378 12.2515 18.8588 12.2412 18.768 12.212L17.3251 11.7627L17.4349 10.6461C17.4349 10.6461 17.4378 10.6227 17.4393 10.5979C17.4539 10.4486 17.5168 10.3315 17.631 10.2393L17.6822 10.1984L17.5359 9.99933L17.4803 10.0462C17.4027 10.112 17.3368 10.1662 17.2827 10.2086C17.23 10.251 17.1847 10.2862 17.1466 10.314C17.1173 10.3359 17.0778 10.3622 17.0281 10.3944C16.9769 10.4281 16.9051 10.4749 16.8115 10.5349L16.75 10.5744L16.8978 10.7779L16.9534 10.7369C17.0471 10.6681 17.0895 10.6505 17.1056 10.6476C17.1203 10.6447 17.1217 10.6476 17.1261 10.6535C17.1261 10.6535 17.1451 10.6842 17.132 10.8188L17.0149 12.0759L16.5173 11.3969C16.412 11.252 16.4149 11.2052 16.4164 11.2008C16.4164 11.192 16.431 11.1466 16.5715 11.0442L16.6271 11.0032L16.4676 10.7852L16.412 10.8305C16.3125 10.911 16.232 10.9769 16.1676 11.0281C16.1047 11.0778 16.0505 11.1203 16.0052 11.1539C15.9686 11.1817 15.9217 11.2139 15.8647 11.252L15.5457 11.4627L15.7037 11.6793L15.7593 11.6413C15.9086 11.5359 15.9554 11.5374 15.9598 11.5388C15.9598 11.5388 16.0037 11.5461 16.1134 11.6954L17.2622 13.2642C17.3705 13.412 17.3646 13.4588 17.3646 13.4632C17.3632 13.472 17.3486 13.5173 17.2095 13.6198L17.1539 13.6607L17.312 13.8773L17.3676 13.832C17.4788 13.7412 17.5666 13.671 17.6281 13.6227C17.6895 13.5759 17.7393 13.5363 17.7788 13.5085C17.8066 13.4881 17.8461 13.4603 17.8973 13.4266C17.95 13.3915 18.0422 13.33 18.1754 13.2422L18.2354 13.2027L18.0802 12.989L18.0261 13.0271C17.8695 13.1354 17.8256 13.1281 17.8242 13.1281C17.8198 13.1281 17.7744 13.1149 17.669 12.97L17.2534 12.4037L17.2725 12.25L18.4139 12.6276C18.471 12.6466 18.4827 12.6612 18.4827 12.6627C18.4827 12.6803 18.468 12.7008 18.4168 12.7388L18.3612 12.7798L18.5193 12.9964L18.5749 12.951C18.6832 12.8617 18.7637 12.7959 18.8178 12.7549C18.8705 12.7139 18.9129 12.6803 18.9451 12.6568C18.9773 12.6334 19.0212 12.6027 19.0797 12.5632C19.1383 12.5237 19.2261 12.4651 19.3432 12.389L19.4032 12.3495L19.2436 12.133L19.188 12.1739L19.191 12.1666Z" fill="white"/>
<path d="M22.1192 10.5906C21.9436 10.6769 21.8953 10.6681 21.8909 10.6667C21.8894 10.6667 21.847 10.6535 21.7621 10.4823L20.9075 8.73645C20.827 8.57255 20.8402 8.52864 20.8416 8.52425C20.8431 8.51986 20.865 8.4745 21.0406 8.38962L21.1021 8.35889L20.9836 8.11597L20.9206 8.15109C20.805 8.21548 20.7099 8.2667 20.6353 8.30767C20.5606 8.34718 20.4977 8.38084 20.445 8.40572C20.4026 8.42621 20.3485 8.45108 20.2811 8.48035L19.9211 8.63693L20.0397 8.87986L20.1011 8.84913C20.2782 8.76279 20.325 8.77157 20.3309 8.77303C20.3324 8.77303 20.3748 8.78766 20.4582 8.95742L21.3128 10.7032C21.3933 10.8671 21.3801 10.9125 21.3772 10.9169C21.3743 10.9242 21.3494 10.9696 21.1797 11.053L21.1182 11.0837L21.2367 11.3252L21.2997 11.2901C21.4284 11.2184 21.5279 11.1642 21.6011 11.1247C21.6728 11.0867 21.7328 11.0559 21.7782 11.034C21.8104 11.0179 21.8543 10.9974 21.9084 10.974C21.964 10.9491 22.0723 10.9023 22.2318 10.8335L22.2977 10.8057L22.1792 10.5642L22.1177 10.595L22.1192 10.5906Z" fill="white"/>
<path d="M23.9982 7.25253C24.0055 7.23644 24.0407 7.19253 24.1929 7.12961L24.2543 7.10473L24.1592 6.85303L23.8709 6.98181C23.8197 7.00376 23.7758 7.02278 23.7392 7.03595C23.6821 7.0579 23.6163 7.07985 23.5431 7.10473C23.4685 7.12961 23.3821 7.15595 23.2841 7.18668L23.2139 7.20863L23.309 7.4618L23.3939 7.43107C23.5651 7.36668 23.628 7.37985 23.647 7.38863C23.6573 7.39302 23.7143 7.4296 23.8065 7.67399L24.2924 8.96763L22.1734 7.60375L22.1397 7.61984C22.0402 7.66521 21.9685 7.6974 21.9246 7.71643C21.8822 7.73545 21.847 7.75009 21.8207 7.76033C21.7724 7.77789 21.7153 7.79838 21.6524 7.81887C21.588 7.83935 21.5119 7.86277 21.4256 7.88911L21.3553 7.9096L21.4505 8.16423L21.5544 8.12472C21.7285 8.06033 21.7768 8.07203 21.7841 8.07496C21.7856 8.07496 21.828 8.09398 21.8939 8.26813L22.5378 9.98322C22.6344 10.2393 22.6124 10.2949 22.6095 10.3008C22.6036 10.314 22.5685 10.3622 22.3929 10.4325L22.33 10.4574L22.4236 10.7061L22.4895 10.6769C22.6007 10.6271 22.6841 10.5905 22.7383 10.5671C22.7924 10.5437 22.8348 10.5261 22.8685 10.5144C22.9182 10.4954 22.9768 10.4749 23.0441 10.453C23.1129 10.4296 23.2051 10.4003 23.3192 10.3666L23.388 10.3461L23.2973 10.093L23.2329 10.1179C23.0353 10.1925 22.9739 10.1808 22.9592 10.1749C22.9563 10.1749 22.9022 10.15 22.8012 9.88225L22.1719 8.20813L24.7036 9.83981L24.9085 9.80762L24.0626 7.55399C23.9734 7.31839 23.9938 7.2657 23.9968 7.25985L23.9982 7.25253Z" fill="white"/>
<path d="M26.7655 6.59985C26.8592 6.65253 26.9455 6.77838 27.0231 6.97594L27.045 7.03155L27.2733 6.97594L26.9733 6.16229L24.5631 6.74765L24.6699 7.60812L24.8982 7.55252L24.8924 7.49252C24.869 7.28325 24.888 7.13106 24.948 7.04033C25.0065 6.95106 25.1338 6.88228 25.3255 6.83545L25.586 6.77253L26.1055 8.90762C26.148 9.08469 26.126 9.12566 26.1231 9.13005C26.1187 9.13737 26.0865 9.17542 25.9124 9.21786L25.7982 9.24566L25.8655 9.50614L25.9328 9.48566C26.0821 9.44175 26.1992 9.4081 26.2841 9.38468C26.3689 9.36127 26.4377 9.34371 26.4889 9.33054C26.5328 9.32029 26.5943 9.30566 26.6704 9.29103C26.748 9.27493 26.8621 9.25298 27.0158 9.22371L27.086 9.21054L27.0231 8.95005L26.9089 8.97786C26.7348 9.0203 26.688 9.00274 26.6806 8.99835C26.6806 8.99835 26.6397 8.97493 26.5958 8.79201L26.0763 6.65692L26.3367 6.59399C26.5284 6.54716 26.6719 6.55009 26.7641 6.60131L26.7655 6.59985Z" fill="white"/>
<path d="M30.1766 8.31061C30.1693 8.18183 30.1649 8.03256 30.162 7.86427V7.78817L29.9249 7.81891L29.9279 7.88183C29.9381 8.13207 29.9059 8.30622 29.8313 8.39695C29.7581 8.48768 29.5913 8.54914 29.3381 8.58133L28.6254 8.67206L28.4776 7.5072L28.7176 7.47647C28.9298 7.45013 29.0001 7.48525 29.022 7.5072C29.0484 7.53354 29.0996 7.61842 29.1464 7.895L29.1581 7.95939L29.3849 7.93012L29.3732 7.85988C29.3542 7.73696 29.3366 7.62866 29.3235 7.53647C29.3103 7.44428 29.2986 7.36672 29.2913 7.30086C29.2854 7.25257 29.2766 7.18379 29.2679 7.09306C29.2591 7.00233 29.2474 6.89258 29.2342 6.7638L29.2269 6.69356L28.9986 6.72282L29.003 6.78721C29.0206 7.01111 28.9927 7.08867 28.9752 7.11501C28.962 7.1355 28.9064 7.18379 28.6825 7.21306L28.4425 7.24379L28.3152 6.23844L28.8581 6.16966C29.1771 6.12869 29.3162 6.16966 29.3762 6.20917C29.464 6.26771 29.5342 6.40673 29.5854 6.62331L29.6001 6.68331L29.8342 6.65405L29.8196 6.58234C29.7947 6.45795 29.7713 6.33649 29.7493 6.21503C29.7274 6.09357 29.7054 5.97357 29.6849 5.85064L29.6732 5.78479L29.6074 5.79357C29.3454 5.83016 29.041 5.87113 28.6942 5.91796C28.3474 5.96479 27.9611 6.01454 27.5323 6.07015L27.465 6.07893L27.4986 6.34234L27.5659 6.33503C27.7474 6.316 27.7869 6.33942 27.7913 6.34234C27.7928 6.34234 27.8279 6.37015 27.8498 6.55453L28.0957 8.48329C28.1191 8.66475 28.0928 8.70279 28.0884 8.70572C28.0825 8.71304 28.0474 8.74523 27.8762 8.76718L27.8089 8.77596L27.8425 9.03791L30.2059 8.73792L30.2 8.67353C30.1913 8.56231 30.1825 8.44231 30.1766 8.31353V8.31061Z" fill="white"/>
<path d="M33.0873 8.19353L32.8751 8.14377L32.859 8.21109C32.8444 8.27694 32.8224 8.3267 32.7976 8.3545C32.7771 8.37645 32.7507 8.38816 32.7127 8.38816C32.6161 8.39401 32.5927 8.19646 32.5839 8.08085C32.5766 7.97402 32.5693 7.89353 32.562 7.83646C32.5268 7.60671 32.4434 7.43549 32.3103 7.32866C32.2473 7.27745 32.1683 7.23647 32.0732 7.20428C32.2005 7.16623 32.3059 7.11208 32.3893 7.04184C32.5473 6.90867 32.6263 6.72136 32.622 6.48136C32.6176 6.20917 32.5151 6.00868 32.3161 5.88576C32.1346 5.77454 31.8639 5.71893 31.4893 5.71893C31.4688 5.71893 31.4469 5.71893 31.4249 5.71893C31.3473 5.71893 31.2551 5.72332 31.1527 5.72918C31.0517 5.73503 30.9888 5.73796 30.9669 5.73796H30.8395C30.7795 5.74088 30.7195 5.74088 30.661 5.73942C30.6025 5.73942 30.5439 5.73649 30.4869 5.73357L30.4137 5.72918L30.4181 5.99844H30.4854C30.6669 5.99844 30.7049 6.02771 30.7078 6.03064C30.7078 6.03064 30.74 6.06283 30.743 6.24722L30.7752 8.19207C30.7781 8.37499 30.7473 8.41011 30.7444 8.41304C30.7386 8.41889 30.6991 8.44816 30.5264 8.45109H30.4576L30.462 8.72035L30.5337 8.71596C30.6771 8.70572 30.7883 8.6984 30.8673 8.69547C30.9449 8.69108 31.0078 8.68962 31.0561 8.68816C31.0898 8.68816 31.1381 8.68816 31.201 8.68962C31.2639 8.69108 31.3751 8.69401 31.5332 8.69986L31.6049 8.70279L31.6005 8.43792H31.5332C31.3429 8.43499 31.3108 8.40426 31.3093 8.40279C31.3064 8.39987 31.2771 8.36328 31.2742 8.18475L31.261 7.34915L31.4351 7.34623C31.6868 7.3433 31.8581 7.37696 31.9459 7.45013C32.0307 7.52037 32.0761 7.6711 32.079 7.89792C32.079 7.91841 32.079 7.95939 32.079 8.01939C32.079 8.08231 32.079 8.13646 32.079 8.18036C32.082 8.36182 32.1244 8.49791 32.2064 8.58572C32.2898 8.67645 32.4141 8.72035 32.5824 8.71889C32.7215 8.71596 32.8341 8.67499 32.9176 8.59596C32.9995 8.5184 33.0522 8.40279 33.0741 8.25499L33.0829 8.19353H33.0873ZM31.2434 5.98527C31.2698 5.98381 31.299 5.98234 31.3312 5.97942C31.3942 5.97503 31.4381 5.97356 31.4644 5.9721C31.6883 5.96771 31.8522 6.00868 31.9546 6.09356C32.0527 6.17551 32.1039 6.31161 32.1068 6.49892C32.1098 6.69502 32.0629 6.84135 31.9664 6.92916C31.8683 7.01989 31.7015 7.06818 31.4732 7.07111C31.4395 7.07111 31.3722 7.07111 31.2683 7.06818C31.2654 7.06818 31.2625 7.06818 31.261 7.06818L31.2434 5.98234V5.98527Z" fill="white"/>
<path d="M35.9746 6.29988C35.9892 6.28817 36.0405 6.26476 36.2044 6.27793L36.2702 6.28378L36.298 6.01598L36.2248 6.01305C36.1209 6.00866 36.039 6.00427 35.9819 6.00135C35.9263 5.99842 35.878 5.99549 35.84 5.9911C35.7785 5.98525 35.7097 5.97647 35.6336 5.96476C35.5561 5.95306 35.4668 5.93842 35.3658 5.92232L35.2941 5.91062L35.2649 6.17988L35.3556 6.18866C35.5371 6.20769 35.5868 6.2472 35.6 6.26329C35.6073 6.27208 35.6424 6.33061 35.6146 6.58963L35.4683 7.96376L34.1863 5.79355H34.1483C34.0385 5.78769 33.961 5.78477 33.9127 5.7833C33.8673 5.78038 33.8293 5.77745 33.8 5.77452C33.7488 5.76867 33.6888 5.76135 33.6229 5.75111C33.5556 5.74086 33.4781 5.72769 33.3888 5.7116L33.3171 5.69843L33.2893 5.96915L33.399 5.98086C33.5834 5.99988 33.6215 6.03354 33.6273 6.0394C33.6273 6.04086 33.6595 6.07598 33.639 6.26037L33.4459 8.08229C33.4166 8.35302 33.3727 8.39399 33.3683 8.39838C33.3566 8.40716 33.3039 8.43643 33.1151 8.41887L33.0478 8.41302L33.02 8.67789L33.0932 8.68082C33.2161 8.68667 33.3068 8.69106 33.3654 8.69399C33.4225 8.69692 33.4693 8.70131 33.5044 8.7057C33.5571 8.71155 33.6185 8.71887 33.6903 8.72911C33.762 8.73936 33.8571 8.75399 33.9741 8.77448L34.0444 8.78618L34.0766 8.51838L34.0078 8.51107C33.7971 8.48911 33.7473 8.45107 33.7371 8.43936C33.7356 8.4379 33.6976 8.39107 33.7283 8.10717L33.9171 6.32915L35.4478 8.92228L35.6453 8.9852L35.9 6.59109C35.9263 6.34085 35.9673 6.30281 35.9731 6.29988H35.9746Z" fill="white"/>
<path d="M38.2941 9.22519C38.2809 9.21055 38.259 9.17104 38.2429 9.06568L37.9048 6.34084L37.7307 6.30133L36.2322 8.61203C36.1707 8.70568 36.1341 8.7291 36.1195 8.73495C36.1005 8.74373 36.0609 8.74959 35.9863 8.73202L35.8985 8.713L35.8385 8.97641L35.9117 8.98666C35.9761 8.99544 36.0361 9.00568 36.0931 9.01592C36.1502 9.02617 36.1985 9.03495 36.238 9.04519C36.2892 9.0569 36.3448 9.07153 36.4048 9.08763C36.4648 9.10373 36.5248 9.12129 36.5878 9.14031L36.658 9.16226L36.7165 8.90471L36.6551 8.88714C36.56 8.85934 36.5336 8.83446 36.5278 8.82715C36.5175 8.81398 36.5161 8.78471 36.5248 8.74666C36.5307 8.72032 36.5424 8.68959 36.56 8.65447C36.579 8.61642 36.6156 8.55495 36.6682 8.473L36.8892 8.12618L37.6385 8.29593L37.7029 8.93836C37.7029 8.94568 37.7029 8.95739 37.7014 8.97056C37.6999 8.98666 37.697 9.00275 37.6926 9.02031C37.6824 9.06422 37.6634 9.07592 37.6487 9.08178C37.6268 9.09056 37.5814 9.09641 37.4936 9.07592L37.4073 9.0569L37.3487 9.31885L37.4204 9.33055C37.5126 9.34665 37.6019 9.36275 37.6882 9.37884C37.7746 9.3964 37.8551 9.4125 37.9297 9.43006C37.9809 9.44177 38.0438 9.45787 38.1199 9.47689C38.196 9.49738 38.2794 9.51933 38.3731 9.54567L38.4419 9.5647L38.5004 9.30275L38.4185 9.28372C38.3409 9.26616 38.3087 9.24275 38.2941 9.22519ZM37.0282 7.88472L37.5126 7.12961L37.6034 8.01496L37.0282 7.88472Z" fill="white"/>
<path d="M40.5272 7.40913L40.7819 7.494C40.9677 7.55693 41.0892 7.63595 41.1389 7.72815C41.1902 7.8218 41.196 7.97546 41.1565 8.18473L41.1448 8.24326L41.3672 8.31789L41.5472 7.47059L39.1956 6.68036L38.8268 7.46474L39.0507 7.53937L39.077 7.48522C39.1692 7.29645 39.2658 7.17791 39.3638 7.13255C39.4604 7.08865 39.6038 7.09743 39.7926 7.16181L40.0473 7.24669L39.3477 9.33056C39.2892 9.50324 39.2482 9.52666 39.2438 9.52812C39.2365 9.53105 39.1882 9.54568 39.0185 9.48861L38.9073 9.45202L38.8253 9.70665L38.8941 9.72568C39.0434 9.76812 39.1619 9.80177 39.2453 9.82665C39.3287 9.85153 39.396 9.87348 39.4473 9.89104C39.4912 9.90567 39.5482 9.92616 39.6214 9.95397C39.6946 9.98177 39.8043 10.0227 39.9492 10.0798L40.0165 10.1062L40.1014 9.85153L39.9902 9.81494C39.8204 9.75787 39.7912 9.71836 39.7868 9.71104C39.7868 9.70958 39.7648 9.66861 39.8248 9.49007L40.5243 7.4062L40.5272 7.40913Z" fill="white"/>
<path d="M41.6613 10.4603C41.6613 10.4603 41.6438 10.4178 41.7198 10.2437L42.4955 8.45983C42.5686 8.293 42.6096 8.27398 42.614 8.27251C42.6184 8.27105 42.6667 8.25788 42.8452 8.3369L42.9081 8.36471L43.0164 8.11739L42.9491 8.09252C42.8262 8.04569 42.7252 8.00764 42.6462 7.97691C42.5672 7.94618 42.5013 7.91984 42.4472 7.89642C42.4033 7.8774 42.3491 7.85252 42.2833 7.82032L41.9306 7.64764L41.8223 7.89496L41.8852 7.92276C42.0667 8.00179 42.0901 8.04422 42.0916 8.04861C42.0916 8.05008 42.1091 8.09105 42.033 8.26373L41.2574 10.0476C41.1842 10.2159 41.1418 10.2349 41.1374 10.2364C41.1301 10.2393 41.0789 10.2496 40.9062 10.1735L40.8433 10.1457L40.7365 10.3915L40.8038 10.4164C40.9413 10.4676 41.0482 10.5086 41.1243 10.5393C41.2003 10.57 41.2618 10.5949 41.3086 10.6154C41.3408 10.63 41.3847 10.6491 41.4389 10.6754C41.4945 10.7017 41.5999 10.753 41.755 10.8305L41.8194 10.8627L41.9262 10.6169L41.8633 10.5891C41.6877 10.513 41.6613 10.4705 41.6569 10.4632L41.6613 10.4603Z" fill="white"/>
<path d="M45.2101 10.9666C45.4325 10.5627 45.5013 10.1749 45.415 9.81055C45.3272 9.4447 45.0945 9.15495 44.7242 8.95007C44.4989 8.82568 44.2706 8.76422 44.0408 8.76422C43.8974 8.76422 43.754 8.78764 43.6106 8.83593C43.2389 8.96032 42.9374 9.22665 42.7165 9.62762C42.5028 10.0154 42.4399 10.3944 42.5306 10.7559C42.6213 11.1203 42.8496 11.4042 43.2082 11.6032C43.574 11.8052 43.9501 11.8476 44.3262 11.7276C44.7008 11.6091 44.9994 11.3515 45.213 10.9652L45.2101 10.9666ZM43.214 9.86323C43.4028 9.52226 43.6238 9.28812 43.8725 9.16519C44.1155 9.04519 44.3423 9.04666 44.5662 9.16958C44.8077 9.30275 44.9408 9.49738 44.973 9.76518C45.0052 10.0374 44.9247 10.352 44.7316 10.7003C44.5413 11.0457 44.3174 11.2827 44.0686 11.4027C43.9516 11.4598 43.8374 11.4876 43.7247 11.4876C43.6018 11.4876 43.4804 11.4539 43.3589 11.3866C43.1262 11.2578 42.9989 11.0661 42.9696 10.7983C42.9404 10.5247 43.0223 10.2101 43.214 9.86323Z" fill="white"/>
<path d="M48.3227 11.7583C48.3403 11.7554 48.3973 11.7613 48.532 11.8535L48.5861 11.8915L48.7456 11.6749L48.6842 11.6354C48.5964 11.5784 48.5276 11.5345 48.4793 11.5037C48.4325 11.473 48.3929 11.4466 48.3622 11.4232C48.3125 11.3866 48.2583 11.3442 48.1983 11.2959C48.1368 11.2476 48.0681 11.1906 47.989 11.1247L47.9334 11.0779L47.7739 11.2974L47.8486 11.3515C47.9949 11.4598 48.0183 11.5184 48.0212 11.5388C48.0227 11.5505 48.0242 11.6179 47.869 11.8271L47.051 12.9408L47.0334 10.4208L47.0013 10.4003C46.9091 10.3418 46.8417 10.2993 46.8022 10.273C46.7642 10.2481 46.732 10.2262 46.71 10.2101C46.6676 10.1793 46.6208 10.1428 46.5681 10.1003C46.5154 10.0579 46.4539 10.0067 46.3852 9.94813L46.3296 9.89984L46.1686 10.1194L46.2579 10.1852C46.4071 10.295 46.4247 10.3418 46.4261 10.3506C46.4261 10.352 46.4349 10.3974 46.3252 10.5481L45.2408 12.0262C45.0798 12.2457 45.0213 12.2588 45.0154 12.2603C45.0008 12.2618 44.9408 12.2603 44.7871 12.1505L44.7315 12.111L44.575 12.3261L44.6364 12.3657C44.7389 12.4315 44.8149 12.4813 44.8647 12.5135C44.913 12.5457 44.951 12.572 44.9803 12.5939C45.0227 12.6247 45.0725 12.6627 45.1281 12.7081C45.1852 12.7535 45.2598 12.8135 45.3505 12.891L45.4062 12.9364L45.5686 12.7227L45.513 12.6818C45.3418 12.5559 45.3184 12.4988 45.3154 12.4842C45.3154 12.4813 45.3052 12.4227 45.4749 12.193L46.533 10.7515L46.5505 13.7632L46.6896 13.9169L48.1134 11.9749C48.2627 11.7715 48.3168 11.7598 48.3227 11.7598V11.7583Z" fill="white"/>
<path d="M48.9374 15.5675C48.8803 15.5134 48.8628 15.4768 48.8584 15.4549C48.8554 15.4358 48.8554 15.389 48.8949 15.2924L49.9705 12.7666L49.8388 12.6451L47.3818 13.889C47.2823 13.9388 47.2369 13.9417 47.2223 13.9402C47.2018 13.9373 47.1652 13.9241 47.1081 13.8715L47.0423 13.81L46.8579 14.0076L46.9164 14.0529C46.9677 14.0939 47.0145 14.1334 47.0584 14.17C47.1023 14.2066 47.1389 14.2388 47.1696 14.268C47.2091 14.3046 47.2501 14.3441 47.2925 14.388C47.335 14.4319 47.3789 14.4773 47.4228 14.5256L47.4725 14.5797L47.6525 14.3866L47.6086 14.3397C47.5399 14.268 47.5296 14.2329 47.5281 14.2241C47.5252 14.2066 47.5384 14.1817 47.5662 14.1524C47.5852 14.1334 47.6101 14.1115 47.6438 14.091C47.6789 14.0676 47.7389 14.0339 47.8281 13.9885L48.1925 13.7998L48.7559 14.3222L48.4896 14.9105C48.4896 14.9105 48.4793 14.9266 48.472 14.9368C48.4633 14.9485 48.453 14.9617 48.4398 14.9749C48.4091 15.0085 48.3872 15.0085 48.3711 15.0056C48.3476 15.0012 48.3067 14.9851 48.2408 14.9222L48.1764 14.8622L47.9935 15.0583L48.0491 15.1051C48.1208 15.1651 48.1911 15.2236 48.2569 15.2822C48.3228 15.3392 48.3842 15.3949 48.4398 15.4475C48.4779 15.4827 48.5247 15.528 48.5803 15.5836C48.6359 15.6392 48.6974 15.7007 48.7647 15.7709L48.8145 15.8222L48.9974 15.6246L48.9359 15.5675H48.9374ZM49.2359 13.2495L48.8701 14.0617L48.4384 13.6607L49.2359 13.251V13.2495Z" fill="white"/>
<path d="M50.9832 16.7412L50.932 16.7792C50.6364 16.9987 50.4754 17.0397 50.3905 17.0339C50.272 17.0265 50.1271 16.927 49.9618 16.7382L49.5652 16.2861L51.2188 14.8358C51.3608 14.7114 51.4047 14.7144 51.4061 14.7158C51.412 14.7158 51.4588 14.7261 51.5832 14.868L51.6652 14.9617L51.8686 14.7832L51.8188 14.7319C51.7325 14.6427 51.6578 14.5651 51.5934 14.4963C51.5291 14.429 51.4734 14.3676 51.4252 14.3119C51.3944 14.2768 51.3564 14.2315 51.311 14.1744C51.2642 14.1158 51.1983 14.0339 51.1149 13.9285L51.0696 13.8729L50.8676 14.05L50.9115 14.1012C51.0286 14.2402 51.0315 14.2871 51.0315 14.2915C51.0315 14.2929 51.0286 14.3368 50.8881 14.4583L49.4262 15.7402C49.2886 15.8602 49.2418 15.8602 49.2374 15.8587C49.2286 15.8587 49.1818 15.847 49.0676 15.7168L49.0223 15.6656L48.8232 15.8397L48.8993 15.9261C49.2037 16.2656 49.4247 16.5129 49.5637 16.6724C49.6018 16.7148 49.7013 16.8304 49.8637 17.0192L50.3188 17.546L50.37 17.5095C50.4154 17.4773 50.4783 17.4319 50.5603 17.3734C50.85 17.1699 51.0271 17.0397 51.0974 16.9768L51.1486 16.9314L50.9803 16.7397L50.9832 16.7412Z" fill="white"/>
<path d="M53.1695 19.3445C53.2119 19.1733 53.1885 18.888 53.0993 18.468C53.048 18.2382 53.0349 18.0714 53.0597 17.969C53.0832 17.8724 53.1432 17.7948 53.2441 17.729C53.3612 17.6529 53.4783 17.6309 53.6027 17.6616C53.7285 17.6924 53.8295 17.7685 53.9114 17.8958C54.0183 18.0612 54.0534 18.2177 54.0168 18.3729C53.9817 18.5294 53.8719 18.6802 53.6934 18.8192L53.6436 18.8572L53.7666 19.0475L53.8251 19.0065C53.8909 18.9611 53.9524 18.9187 54.0095 18.8792C54.0666 18.8397 54.1207 18.8046 54.1705 18.7709C54.2041 18.7489 54.248 18.7226 54.2992 18.6919L54.5422 18.5455L54.428 18.3685L54.33 18.4051C54.33 18.2982 54.3153 18.1958 54.289 18.0992C54.2553 17.9704 54.1953 17.8416 54.1134 17.7143C53.9627 17.4817 53.7724 17.3368 53.547 17.2812C53.4827 17.2651 53.4197 17.2578 53.3553 17.2578C53.1929 17.2578 53.0305 17.309 52.8724 17.4114C52.7554 17.4875 52.6676 17.5738 52.6105 17.6704C52.5534 17.7655 52.5212 17.8826 52.5124 18.0158C52.5051 18.1446 52.5315 18.3363 52.5915 18.6026C52.6032 18.6509 52.6119 18.6875 52.6163 18.7124C52.6617 18.9289 52.6734 19.0914 52.65 19.1938C52.628 19.2904 52.571 19.3665 52.4788 19.4265C52.3515 19.5084 52.2285 19.5333 52.1027 19.5026C51.9754 19.4719 51.87 19.3899 51.7822 19.2553C51.6651 19.0738 51.6329 18.8997 51.6841 18.7182C51.7354 18.5353 51.8715 18.3655 52.0851 18.2133L52.1378 18.1753L52.0061 17.9704L51.949 18.007C51.8729 18.0553 51.7954 18.108 51.7149 18.1636C51.6359 18.2177 51.5905 18.2485 51.5832 18.2543C51.5759 18.2587 51.529 18.288 51.4427 18.3407C51.3549 18.3948 51.2715 18.446 51.1939 18.4972L51.1368 18.5338L51.251 18.7094L51.3739 18.667C51.3666 18.7826 51.3739 18.8938 51.3973 18.9992C51.4266 19.1367 51.4822 19.2699 51.5627 19.3958C51.7222 19.6431 51.9227 19.8041 52.1598 19.8758C52.3997 19.9489 52.6295 19.9153 52.8432 19.7777C53.0173 19.6665 53.1271 19.5202 53.171 19.3445H53.1695Z" fill="white"/>
<path d="M54.1734 22.3987L54.2568 22.3782L54.147 22.1572L54.0973 22.166C53.8982 22.1997 53.7197 22.1777 53.5675 22.1002C53.4153 22.0241 53.2939 21.8938 53.2061 21.7167C53.0729 21.4504 53.0685 21.2016 53.19 20.9558C53.3129 20.707 53.5602 20.4904 53.9246 20.309C54.2831 20.1304 54.5948 20.0616 54.8495 20.1026C55.0997 20.1421 55.2812 20.2826 55.4041 20.5314C55.5124 20.748 55.5299 20.9543 55.4582 21.1592C55.3865 21.3641 55.2299 21.5426 54.9914 21.6875L54.9373 21.7197L55.0397 21.9275L55.2504 21.8163C55.3455 21.7665 55.407 21.7343 55.4333 21.7211C55.5255 21.6758 55.6763 21.6055 55.8811 21.5163L55.9572 21.4782L55.8607 21.2836L55.7304 21.3158C55.767 21.187 55.7831 21.0553 55.7758 20.9221C55.767 20.748 55.7187 20.5724 55.6338 20.4026C55.4494 20.0324 55.167 19.7909 54.7938 19.6856C54.668 19.6504 54.5392 19.6329 54.4075 19.6329C54.1543 19.6329 53.8924 19.6987 53.6261 19.8319C53.2251 20.0309 52.9529 20.3119 52.8197 20.6646C52.6851 21.0187 52.7114 21.3889 52.8973 21.7636C53.0305 22.0314 53.209 22.2231 53.427 22.3328C53.6465 22.4426 53.8968 22.466 54.1704 22.4016L54.1734 22.3987Z" fill="white"/>
<path d="M54.6826 25.3518C54.6826 25.3518 54.7031 25.3108 54.8802 25.2493L56.7168 24.6098C56.8909 24.5498 56.9319 24.5674 56.9333 24.5674C56.9377 24.5688 56.9758 24.5937 57.0387 24.7649L57.0621 24.8279L57.3167 24.7386L57.2889 24.6713C57.2421 24.5557 57.2026 24.4591 57.1733 24.383C57.1441 24.3069 57.1192 24.241 57.0987 24.184C57.0841 24.143 57.068 24.0903 57.0489 24.0245L56.9407 23.6572L56.6875 23.7493L56.708 23.8123C56.7636 23.9835 56.7475 24.0274 56.746 24.0318C56.7446 24.0362 56.7211 24.0742 56.5529 24.1342L55.846 24.3801L55.429 23.1786L56.1358 22.9328C56.3055 22.8742 56.3494 22.8918 56.3538 22.8933C56.3612 22.8962 56.4007 22.924 56.4577 23.0879L56.4797 23.1523L56.7343 23.0645L56.708 22.9972C56.6597 22.8786 56.6216 22.782 56.5909 22.706C56.5616 22.6299 56.5368 22.5655 56.5192 22.5128C56.5046 22.4703 56.487 22.4162 56.468 22.3503L56.3597 21.9845L56.1065 22.0723L56.127 22.1367C56.1841 22.3094 56.168 22.3547 56.1665 22.3591C56.1665 22.3606 56.146 22.4001 55.9719 22.4601L54.1353 23.0996C53.9627 23.1596 53.9202 23.1406 53.9158 23.1391C53.9085 23.1347 53.8675 23.1069 53.8119 22.9445L53.79 22.8801L53.5368 22.9679L53.5646 23.0352C53.6188 23.1684 53.6612 23.2723 53.689 23.3455C53.7168 23.4186 53.7388 23.4772 53.7549 23.5225C53.7666 23.5547 53.7812 23.6001 53.7988 23.6601C53.8178 23.7201 53.8485 23.8269 53.8939 23.9791L53.9144 24.0479L54.1646 23.9615L54.1441 23.8986C54.087 23.7172 54.1061 23.6776 54.1075 23.6747C54.1105 23.6703 54.1339 23.6308 54.3036 23.5723L55.1817 23.2679L55.5987 24.4679L54.7207 24.7723C54.5553 24.8308 54.5085 24.8147 54.5012 24.8103C54.4939 24.8074 54.4529 24.7796 54.3958 24.6171L54.3739 24.5528L54.1207 24.6406L54.1485 24.7079C54.2041 24.8454 54.2466 24.9493 54.2744 25.021C54.3022 25.0913 54.3226 25.1498 54.3387 25.1937C54.3519 25.2303 54.368 25.283 54.3885 25.3488C54.409 25.4162 54.4383 25.5171 54.4778 25.6518L54.4983 25.7205L54.7485 25.6342L54.728 25.5698C54.6739 25.403 54.687 25.3576 54.69 25.3503L54.6826 25.3518Z" fill="white"/>
<path d="M56.5704 28.3664C57.0226 28.2742 57.3621 28.0722 57.5816 27.7708C57.8026 27.4664 57.8714 27.102 57.785 26.6864C57.7016 26.2781 57.4865 25.9679 57.1485 25.7659C56.9172 25.6269 56.6568 25.5581 56.3714 25.5581C56.2412 25.5581 56.1065 25.5727 55.966 25.602C55.5329 25.6913 55.2036 25.8903 54.987 26.1932C54.769 26.4991 54.7002 26.8576 54.7836 27.2586C54.8685 27.6683 55.0807 27.9815 55.4143 28.1893C55.748 28.3971 56.1373 28.4556 56.569 28.3678L56.5704 28.3664ZM55.2417 26.5547C55.4304 26.3542 55.7231 26.2122 56.1109 26.1318C56.4929 26.0542 56.8148 26.0688 57.0694 26.1786C57.3182 26.2854 57.4645 26.4596 57.5158 26.7083C57.5714 26.9791 57.5099 27.2059 57.3285 27.4034C57.1426 27.6054 56.8499 27.7473 56.4592 27.8278C56.2982 27.8615 56.1475 27.8776 56.0085 27.8776C55.8138 27.8776 55.6426 27.8454 55.4948 27.781C55.246 27.6727 55.0997 27.4927 55.0456 27.2308C54.9914 26.9703 55.0558 26.7493 55.2402 26.5532L55.2417 26.5547Z" fill="white"/>
<path d="M55.707 31.1907C56.0114 31.438 56.3889 31.5478 56.8308 31.5141C57.2904 31.479 57.6533 31.3239 57.9094 31.0517C58.1669 30.778 58.2811 30.4239 58.2489 30.0024C58.2181 29.5868 58.044 29.2517 57.7338 29.0088C57.463 28.7966 57.1323 28.6883 56.746 28.6883C56.6918 28.6883 56.6377 28.6898 56.5806 28.6941C56.1401 28.7278 55.7875 28.8829 55.5343 29.1566C55.2797 29.4317 55.1655 29.7785 55.1977 30.1883C55.2299 30.6053 55.3997 30.9419 55.7055 31.1907H55.707ZM55.7421 29.5473C55.9543 29.3732 56.2631 29.2693 56.6582 29.2385C57.046 29.2093 57.365 29.2663 57.6035 29.4068C57.8377 29.5444 57.9606 29.7346 57.9796 29.9892C58.0001 30.2644 57.9108 30.4824 57.7045 30.6551C57.4952 30.8307 57.1879 30.9361 56.7884 30.9653C56.7211 30.9697 56.6552 30.9726 56.5923 30.9726C56.2879 30.9726 56.0348 30.9141 55.8387 30.7956C55.606 30.6566 55.4831 30.459 55.4626 30.1927C55.4421 29.9278 55.5343 29.7156 55.7421 29.5444V29.5473Z" fill="white"/>
<path d="M58.0426 31.921L58.0382 31.9883C58.0279 32.1698 57.9972 32.2063 57.9943 32.2093C57.9943 32.2093 57.9606 32.24 57.7762 32.2327L55.8328 32.161C55.6514 32.1537 55.6163 32.1215 55.6133 32.1185C55.6075 32.1127 55.5811 32.0717 55.587 31.899L55.5899 31.8302L55.325 31.82L55.3207 31.9356C55.309 32.3907 55.2987 32.7229 55.2914 32.9351C55.2899 32.9922 55.2826 33.1444 55.2709 33.3932L55.2402 34.0883L55.3031 34.097C55.3587 34.1044 55.4363 34.1146 55.5358 34.1292C55.887 34.1805 56.105 34.2068 56.1987 34.2112L56.2675 34.2141L56.2777 33.9595L56.2148 33.9522C55.8489 33.9083 55.7041 33.8263 55.647 33.7649C55.565 33.6785 55.5285 33.5073 55.5387 33.2556L55.5607 32.6541L57.7587 32.7361C57.9474 32.7434 57.9767 32.7756 57.9782 32.7771C57.9811 32.7815 58.0089 32.821 58.0016 33.0097L57.9972 33.1341L58.2679 33.1444V33.0727C58.265 32.9483 58.2635 32.84 58.265 32.7478C58.265 32.6556 58.2665 32.5722 58.2694 32.4976C58.2709 32.4522 58.2752 32.3922 58.2811 32.319C58.287 32.2444 58.2957 32.1405 58.3074 32.0059L58.3133 31.9342L58.0455 31.9239L58.0426 31.921Z" fill="white"/>
<path d="M38.5634 58.5328C37.9897 58.7889 37.3429 58.9293 36.6771 58.9191C35.3278 58.9001 34.2025 58.2781 33.5542 57.3811C34.1191 57.2347 34.7176 57.1762 35.3381 57.2186C36.5834 57.305 37.7088 57.7791 38.5634 58.5328Z" fill="white"/>
<path d="M33.4941 56.367C34.0517 56.446 34.6414 56.3948 35.2048 56.1972C36.3478 55.7992 37.1292 54.8977 37.416 53.866C36.8965 53.8792 36.377 53.9846 35.8648 54.1968C34.839 54.6226 34.018 55.3982 33.4927 56.367H33.4941Z" fill="white"/>
<path d="M43.2432 56.9098C42.9915 57.1001 42.7032 57.2406 42.4032 57.3606C42.1018 57.4806 41.7857 57.5757 41.4608 57.6401C40.8037 57.7513 40.1584 57.7074 39.5877 57.5376C39.0155 57.3693 38.5135 57.0737 38.1111 56.6933C38.6408 56.4474 39.2174 56.282 39.8364 56.2103C40.1481 56.1737 40.4554 56.165 40.7554 56.1781C41.0569 56.1942 41.3481 56.2206 41.6364 56.282C42.21 56.3991 42.7661 56.6318 43.2432 56.9084V56.9098Z" fill="white"/>
<path d="M37.8696 55.7069C38.4316 55.6835 39.0023 55.5269 39.5218 55.2313C39.7837 55.0821 40.0194 54.9065 40.2257 54.7074C40.4335 54.5113 40.6062 54.2816 40.754 54.0504C41.0467 53.5806 41.2267 53.0801 41.2706 52.5284C41.0203 52.5958 40.7657 52.6587 40.5213 52.7567C40.2769 52.8548 40.0384 52.9821 39.8101 53.1416C39.3374 53.4475 38.9452 53.8235 38.6189 54.2582C38.294 54.6943 38.0394 55.183 37.8711 55.7055L37.8696 55.7069Z" fill="white"/>
<path d="M47.5573 54.4762C47.1139 54.9211 46.5593 55.2811 45.9344 55.5094C45.6227 55.6308 45.3022 55.6938 44.992 55.7377C44.8383 55.7581 44.6832 55.7699 44.5237 55.7742C44.3671 55.7816 44.2164 55.7625 44.0671 55.7464C43.4715 55.6733 42.9272 55.4786 42.4647 55.1816C42.7003 55.0074 42.952 54.8538 43.2228 54.725C43.492 54.5962 43.7803 54.4967 44.0788 54.3987C44.3759 54.3021 44.6774 54.2406 44.9759 54.2011C45.273 54.1572 45.57 54.1411 45.8656 54.1528C46.4481 54.1601 47.0305 54.2801 47.5573 54.4748V54.4762Z" fill="white"/>
<path d="M42.0477 54.2553C42.3199 54.1865 42.5892 54.0899 42.8497 53.9641C43.1101 53.8382 43.3648 53.6904 43.5887 53.4943C43.817 53.2953 44.0189 53.0831 44.1872 52.8519C44.3526 52.6163 44.4887 52.3704 44.5926 52.1187C44.7931 51.5992 44.875 51.0665 44.8238 50.5251C44.3438 50.7241 43.8945 51.0065 43.4921 51.387C43.2931 51.5846 43.1028 51.7821 42.9433 52.0075C42.8614 52.1202 42.7882 52.2329 42.7224 52.347C42.658 52.4626 42.5848 52.5768 42.5248 52.6968C42.2775 53.1738 42.1165 53.7065 42.0477 54.2582V54.2553Z" fill="white"/>
<path d="M46.233 52.5607C45.2993 53.2046 44.3262 53.7929 43.3091 54.2977L42.5423 54.665C42.2848 54.785 42.0345 54.9197 41.7682 55.0162C41.2399 55.2226 40.7189 55.4509 40.1819 55.6309C38.0365 56.3728 35.7888 56.8133 33.5234 56.9479L33.5146 56.806C35.7668 56.6713 38.0014 56.2338 40.135 55.4962C40.6706 55.3177 41.1872 55.0909 41.7126 54.8845C41.9774 54.788 42.2262 54.6533 42.4823 54.5348L43.2462 54.1689C44.2559 53.6685 45.2247 53.0831 46.154 52.4421L46.2345 52.5592L46.233 52.5607Z" fill="white"/>
<path d="M51.3621 51.2963C51.1821 51.5524 50.9787 51.8012 50.7387 52.0177C50.5016 52.2373 50.2426 52.4407 49.9514 52.6046C49.6631 52.7743 49.366 52.9104 49.0631 53.0011C48.7617 53.0948 48.4646 53.1577 48.1646 53.1768C47.8661 53.1972 47.5763 53.1885 47.2953 53.1431C47.0114 53.0963 46.7407 53.0187 46.4846 52.9119C46.6866 52.7012 46.9134 52.5124 47.1505 52.3295C47.389 52.1495 47.6509 51.9929 47.9246 51.8465C48.2026 51.7031 48.488 51.5875 48.7719 51.4909C49.0573 51.3958 49.3514 51.3314 49.6382 51.2831C49.9265 51.2363 50.2207 51.2173 50.5089 51.2202C50.7958 51.2202 51.0811 51.2465 51.3606 51.2978L51.3621 51.2963Z" fill="white"/>
<path d="M45.9081 52.0777C46.1657 51.965 46.4188 51.8289 46.6471 51.6504C46.8783 51.4763 47.0964 51.2787 47.2822 51.0431C47.4739 50.8104 47.6334 50.5646 47.7534 50.3041C47.8764 50.0451 47.9686 49.7831 48.0198 49.5095C48.0725 49.2373 48.0973 48.968 48.0871 48.6987C48.0754 48.4265 48.033 48.1602 47.9612 47.9012C47.7403 48.0387 47.5398 48.2056 47.3422 48.3826C47.1476 48.5626 46.9735 48.769 46.8052 48.9899C46.6398 49.2153 46.5022 49.4553 46.3808 49.6968C46.2608 49.9412 46.1686 50.2002 46.091 50.4577C46.0149 50.7168 45.9652 50.9889 45.933 51.2597C45.9008 51.5289 45.892 51.8026 45.9066 52.0777H45.9081Z" fill="white"/>
<path d="M54.5318 47.4929C54.4001 47.7768 54.2362 48.0519 54.0475 48.3153C53.8499 48.5714 53.6275 48.8144 53.3787 49.0339C53.1211 49.2505 52.8533 49.4348 52.5767 49.5841C52.2958 49.729 52.009 49.8402 51.7236 49.9178C51.1412 50.0626 50.569 50.0817 50.0217 49.9587C50.348 49.4758 50.7548 49.0324 51.2465 48.6519C52.2358 47.891 53.3875 47.4944 54.5304 47.4929H54.5318Z" fill="white"/>
<path d="M49.3031 49.2402C49.7729 48.93 50.1783 48.4983 50.4695 47.9773C51.0607 46.9222 51.0402 45.7251 50.5748 44.7651C50.3817 44.9407 50.2061 45.1339 50.0524 45.3505C49.8914 45.5598 49.7524 45.7924 49.6339 46.0441C49.508 46.2915 49.4144 46.5519 49.3427 46.8154C49.2666 47.0758 49.2183 47.3436 49.1934 47.6158C49.1334 48.15 49.1802 48.7119 49.3017 49.2402H49.3031Z" fill="white"/>
<path d="M56.9611 43.1759C56.8104 43.7847 56.5221 44.3817 56.105 44.9012C55.6851 45.4251 55.1743 45.8173 54.6329 46.0676C54.4982 46.1305 54.3621 46.1861 54.2261 46.2329C54.087 46.2783 53.9465 46.3149 53.8061 46.3427C53.5265 46.3998 53.2456 46.4246 52.9705 46.4159C53.0831 46.1451 53.2236 45.8861 53.3875 45.6359C53.5441 45.3812 53.7314 45.1398 53.9407 44.91C54.7748 43.9822 55.8416 43.3866 56.9597 43.1744L56.9611 43.1759Z" fill="white"/>
<path d="M52.1348 45.8407C52.3324 45.6432 52.5168 45.4222 52.6748 45.1793C52.8255 44.9334 52.9572 44.6686 53.0553 44.3876C53.4446 43.2418 53.2148 42.071 52.5768 41.2106C52.268 41.6276 52.0309 42.1018 51.8831 42.6359C51.7353 43.1744 51.6885 43.7188 51.7309 44.2588C51.7426 44.3949 51.7602 44.5295 51.7836 44.6642C51.8041 44.7973 51.8319 44.9305 51.8656 45.0622C51.9314 45.3256 52.0221 45.5876 52.1348 45.8393V45.8407Z" fill="white"/>
<path d="M54.8362 42.2247C54.3709 43.2593 53.8397 44.2646 53.2324 45.2246C52.6309 46.1875 51.9651 47.108 51.2392 47.9802C49.7875 49.7246 48.0988 51.2714 46.2315 52.5621L46.151 52.445C48.0066 51.1616 49.6866 49.6236 51.1295 47.8895C51.8509 47.0217 52.5138 46.1056 53.1124 45.15C53.7153 44.1959 54.2436 43.1964 54.706 42.1676L54.8362 42.2261V42.2247Z" fill="white"/>
<path d="M54.2553 43.3062C54.7119 43.0003 55.1143 42.5964 55.4275 42.1033C56.0582 41.1096 56.2075 39.9477 55.9353 38.8911C55.4787 39.1955 55.0763 39.6009 54.7631 40.094C54.1324 41.0877 53.9831 42.2496 54.2553 43.3062Z" fill="white"/>
<path d="M25.4996 58.5328C26.0733 58.7889 26.7201 58.9293 27.3859 58.9191C28.7352 58.9001 29.8605 58.2781 30.5088 57.3811C29.944 57.2347 29.3454 57.1762 28.725 57.2186C27.4796 57.305 26.3543 57.7791 25.4996 58.5328Z" fill="white"/>
<path d="M30.5689 56.367C30.0113 56.446 29.4216 56.3948 28.8582 56.1972C27.7153 55.7992 26.9338 54.8977 26.647 53.866C27.1665 53.8792 27.686 53.9846 28.1982 54.1968C29.224 54.6226 30.045 55.3982 30.5703 56.367H30.5689Z" fill="white"/>
<path d="M20.8197 56.9098C21.0714 57.1001 21.3597 57.2406 21.6597 57.3606C21.9611 57.4806 22.2772 57.5757 22.6021 57.6401C23.2592 57.7513 23.9045 57.7074 24.4753 57.5376C25.0474 57.3693 25.5494 57.0737 25.9518 56.6933C25.4221 56.4474 24.8455 56.282 24.2265 56.2103C23.9148 56.1737 23.6075 56.165 23.3075 56.1781C23.006 56.1942 22.7148 56.2206 22.4265 56.282C21.8529 56.3991 21.2968 56.6318 20.8197 56.9084V56.9098Z" fill="white"/>
<path d="M26.1947 55.7069C25.6328 55.6835 25.0621 55.5269 24.5426 55.2313C24.2806 55.0821 24.045 54.9065 23.8387 54.7074C23.6309 54.5113 23.4582 54.2816 23.3104 54.0504C23.0177 53.5806 22.8377 53.0801 22.7938 52.5284C23.0441 52.5958 23.2987 52.6587 23.5431 52.7567C23.7875 52.8548 24.026 52.9821 24.2543 53.1416C24.727 53.4475 25.1192 53.8235 25.4455 54.2582C25.7704 54.6943 26.025 55.183 26.1933 55.7055L26.1947 55.7069Z" fill="white"/>
<path d="M16.5071 54.4762C16.9505 54.9211 17.5051 55.2811 18.13 55.5094C18.4417 55.6308 18.7622 55.6938 19.0724 55.7377C19.2261 55.7581 19.3812 55.7699 19.5407 55.7742C19.6973 55.7816 19.848 55.7625 19.9973 55.7464C20.5929 55.6733 21.1373 55.4786 21.5997 55.1816C21.3641 55.0074 21.1124 54.8538 20.8416 54.725C20.5724 54.5962 20.2841 54.4967 19.9856 54.3987C19.6885 54.3021 19.387 54.2406 19.0885 54.2011C18.7914 54.1572 18.4944 54.1411 18.1988 54.1528C17.6163 54.1601 17.0339 54.2801 16.5071 54.4748V54.4762Z" fill="white"/>
<path d="M22.0153 54.2553C21.7431 54.1865 21.4738 54.0899 21.2134 53.9641C20.9529 53.8382 20.6982 53.6904 20.4743 53.4943C20.2461 53.2953 20.0441 53.0831 19.8758 52.8519C19.7105 52.6163 19.5744 52.3704 19.4705 52.1187C19.27 51.5992 19.188 51.0665 19.2392 50.5251C19.7192 50.7241 20.1685 51.0065 20.5709 51.387C20.77 51.5846 20.9602 51.7821 21.1197 52.0075C21.2017 52.1202 21.2748 52.2329 21.3407 52.347C21.4051 52.4626 21.4782 52.5768 21.5382 52.6968C21.7855 53.1738 21.9465 53.7065 22.0153 54.2582V54.2553Z" fill="white"/>
<path d="M17.8314 52.5607C18.7651 53.2046 19.7382 53.7929 20.7553 54.2977L21.5221 54.665C21.7797 54.785 22.0299 54.9197 22.2962 55.0162C22.8245 55.2226 23.3455 55.4509 23.8825 55.6309C26.0279 56.3728 28.2757 56.8133 30.541 56.9479L30.5498 56.806C28.2976 56.6713 26.063 56.2338 23.9294 55.4962C23.3938 55.3177 22.8772 55.0909 22.3518 54.8845C22.087 54.788 21.8382 54.6533 21.5821 54.5348L20.8182 54.1689C19.8085 53.6685 18.8397 53.0831 17.9104 52.4421L17.83 52.5592L17.8314 52.5607Z" fill="white"/>
<path d="M12.7008 51.2963C12.8808 51.5524 13.0842 51.8012 13.3242 52.0177C13.5613 52.2373 13.8203 52.4407 14.1115 52.6046C14.3998 52.7743 14.6969 52.9104 14.9998 53.0011C15.3013 53.0948 15.5983 53.1577 15.8983 53.1768C16.1969 53.1972 16.4866 53.1885 16.7676 53.1431C17.0515 53.0963 17.3222 53.0187 17.5783 52.9119C17.3763 52.7012 17.1495 52.5124 16.9124 52.3295C16.6739 52.1495 16.412 51.9929 16.1383 51.8465C15.8603 51.7031 15.5749 51.5875 15.291 51.4909C15.0056 51.3958 14.7115 51.3314 14.4247 51.2831C14.1364 51.2363 13.8423 51.2173 13.554 51.2202C13.2671 51.2202 12.9818 51.2465 12.7023 51.2978L12.7008 51.2963Z" fill="white"/>
<path d="M18.1562 52.0777C17.8987 51.965 17.6455 51.8289 17.4172 51.6504C17.186 51.4763 16.968 51.2787 16.7821 51.0431C16.5904 50.8104 16.4309 50.5646 16.3109 50.3041C16.188 50.0451 16.0958 49.7831 16.0446 49.5095C15.9919 49.2373 15.967 48.968 15.9772 48.6987C15.9889 48.4265 16.0314 48.1602 16.1031 47.9012C16.3241 48.0387 16.5245 48.2056 16.7221 48.3826C16.9167 48.5626 17.0909 48.769 17.2592 48.9899C17.4245 49.2153 17.5621 49.4553 17.6836 49.6968C17.8036 49.9412 17.8957 50.2002 17.9733 50.4577C18.0494 50.7168 18.0992 50.9889 18.1314 51.2597C18.1635 51.5289 18.1723 51.8026 18.1577 52.0777H18.1562Z" fill="white"/>
<path d="M9.53247 47.4929C9.66418 47.7768 9.82808 48.0519 10.0169 48.3153C10.2144 48.5714 10.4368 48.8144 10.6856 49.0339C10.9432 49.2505 11.211 49.4348 11.4876 49.5841C11.7685 49.729 12.0554 49.8402 12.3407 49.9178C12.9231 50.0626 13.4953 50.0817 14.0426 49.9587C13.7163 49.4758 13.3095 49.0324 12.8178 48.6519C11.8285 47.891 10.6768 47.4944 9.53393 47.4929H9.53247Z" fill="white"/>
<path d="M14.7612 49.2402C14.2915 48.93 13.8861 48.4983 13.5949 47.9773C13.0037 46.9222 13.0242 45.7251 13.4896 44.7651C13.6827 44.9407 13.8583 45.1339 14.012 45.3505C14.173 45.5598 14.312 45.7924 14.4305 46.0441C14.5564 46.2915 14.65 46.5519 14.7217 46.8154C14.7978 47.0758 14.8461 47.3436 14.871 47.6158C14.931 48.15 14.8842 48.7119 14.7627 49.2402H14.7612Z" fill="white"/>
<path d="M7.10181 43.1759C7.25254 43.7847 7.54082 44.3817 7.95789 44.9012C8.37788 45.4251 8.88861 45.8173 9.43006 46.0676C9.5647 46.1305 9.70079 46.1861 9.83689 46.2329C9.97591 46.2783 10.1164 46.3149 10.2569 46.3427C10.5364 46.3998 10.8174 46.4246 11.0925 46.4159C10.9798 46.1451 10.8393 45.8861 10.6754 45.6359C10.5188 45.3812 10.3315 45.1398 10.1222 44.91C9.28812 43.9822 8.2213 43.3866 7.10327 43.1744L7.10181 43.1759Z" fill="white"/>
<path d="M11.9281 45.8407C11.7305 45.6432 11.5462 45.4222 11.3881 45.1793C11.2374 44.9334 11.1057 44.6686 11.0076 44.3876C10.6184 43.2418 10.8481 42.071 11.4862 41.2106C11.7949 41.6276 12.032 42.1018 12.1798 42.6359C12.3276 43.1744 12.3744 43.7188 12.332 44.2588C12.3203 44.3949 12.3027 44.5295 12.2793 44.6642C12.2588 44.7973 12.231 44.9305 12.1974 45.0622C12.1315 45.3256 12.0408 45.5876 11.9281 45.8393V45.8407Z" fill="white"/>
<path d="M9.22668 42.2247C9.69204 43.2593 10.2233 44.2646 10.8306 45.2246C11.432 46.1875 12.0979 47.108 12.8237 47.9802C14.2754 49.7246 15.9641 51.2714 17.8314 52.5621L17.9119 52.445C16.0563 51.1616 14.3764 49.6236 12.9335 47.8895C12.212 47.0217 11.5491 46.1056 10.9506 45.15C10.3476 44.1959 9.81936 43.1964 9.35693 42.1676L9.22668 42.2261V42.2247Z" fill="white"/>
<path d="M9.80767 43.3062C9.35109 43.0003 8.94865 42.5964 8.63549 42.1033C8.00477 41.1096 7.8555 39.9477 8.12769 38.8911C8.58427 39.1955 8.9867 39.6009 9.29987 40.094C9.93059 41.0877 10.0799 42.2496 9.80767 43.3062Z" fill="white"/>
<path d="M32.0307 57.5801C32.3952 57.5801 32.6907 57.2846 32.6907 56.9201C32.6907 56.5556 32.3952 56.2601 32.0307 56.2601C31.6662 56.2601 31.3707 56.5556 31.3707 56.9201C31.3707 57.2846 31.6662 57.5801 32.0307 57.5801Z" fill="white"/>
<path d="M33.301 35.818C33.8996 35.5487 34.4308 35.0965 34.8493 34.5127C34.5947 34.3283 34.3239 34.1702 34.04 34.04C33.8586 34.7658 33.6069 35.3731 33.301 35.818Z" fill="white"/>
<path d="M35.5736 34.3897C35.6043 34.4161 35.6321 34.4468 35.6614 34.4731C36.3755 33.6595 36.7911 32.6439 36.8511 31.5624H36.3741C36.3302 32.6132 36.039 33.5834 35.5721 34.3883L35.5736 34.3897Z" fill="white"/>
<path d="M36.8526 31.0166C36.7926 29.9366 36.377 28.921 35.6614 28.1074C35.6321 28.1352 35.6043 28.163 35.5736 28.1908C36.0404 28.9971 36.3316 29.9673 36.3755 31.0166H36.8526Z" fill="white"/>
<path d="M34.8493 28.0664C34.4308 27.4825 33.8996 27.0303 33.301 26.761C33.6069 27.2059 33.86 27.8132 34.04 28.5391C34.3239 28.4088 34.5947 28.2508 34.8493 28.0664Z" fill="white"/>
<path d="M30.6025 28.7601C31.523 29.0454 32.5415 29.0454 33.4619 28.7601C33.481 28.7542 33.5 28.7469 33.519 28.741C33.1781 27.3435 32.5854 26.486 32.0322 26.486C31.4791 26.486 30.8864 27.345 30.5454 28.741C30.5644 28.7469 30.5835 28.7542 30.6025 28.7601Z" fill="white"/>
<path d="M34.3473 31.0166H35.8283C35.7873 30.0947 35.5385 29.243 35.142 28.5303C34.8332 28.7498 34.5039 28.9357 34.1586 29.085C34.2683 29.6747 34.3342 30.3245 34.3473 31.0166Z" fill="white"/>
<path d="M30.7635 26.761C30.1649 27.0303 29.6337 27.4825 29.2152 28.0664C29.4698 28.2508 29.7406 28.4088 30.0245 28.5391C30.2059 27.8132 30.4576 27.2059 30.7635 26.761Z" fill="white"/>
<path d="M33.6317 29.2795C33.6317 29.2795 33.6258 29.281 33.6229 29.2825C32.597 29.6 31.4658 29.6 30.44 29.2825C30.4371 29.2825 30.4342 29.281 30.4312 29.2795C30.3376 29.8034 30.2776 30.3859 30.2629 31.0151H33.7985C33.7853 30.3859 33.7253 29.8034 33.6302 29.2795H33.6317Z" fill="white"/>
<path d="M30.4312 33.2995C30.4312 33.2995 30.4371 33.298 30.44 33.2966C30.9537 33.1385 31.4878 33.058 32.0307 33.058C32.5736 33.058 33.1092 33.1385 33.6214 33.2966C33.6243 33.2966 33.6273 33.298 33.6302 33.2995C33.7239 32.7756 33.7839 32.1932 33.7985 31.5639H30.2629C30.2761 32.1932 30.3361 32.7756 30.4312 33.2995Z" fill="white"/>
<path d="M34.3473 31.5639C34.3342 32.2576 34.2669 32.9073 34.1586 33.4956C34.5054 33.6448 34.8347 33.8307 35.142 34.0502C35.5385 33.339 35.7873 32.4858 35.8283 31.5639H34.3473Z" fill="white"/>
<path d="M33.4619 33.819C32.54 33.5336 31.5244 33.5336 30.6025 33.819C30.5835 33.8249 30.5644 33.8322 30.5454 33.838C30.8864 35.2356 31.4791 36.0931 32.0322 36.0931C32.5854 36.0931 33.1781 35.2341 33.519 33.838C33.5 33.8322 33.481 33.8249 33.4619 33.819Z" fill="white"/>
<path d="M29.7172 31.5639H28.2362C28.2772 32.4858 28.526 33.339 28.9225 34.0502C29.2313 33.8307 29.5606 33.6448 29.9059 33.4956C29.7962 32.9058 29.7303 32.2561 29.7172 31.5639Z" fill="white"/>
<path d="M29.2152 34.5141C29.6337 35.098 30.1649 35.5502 30.7635 35.8195C30.4576 35.3746 30.2045 34.7673 30.0245 34.0414C29.7406 34.1717 29.4713 34.3297 29.2152 34.5141Z" fill="white"/>
<path d="M47.5603 18.9817C46.7803 19.0446 45.993 19.0753 45.1969 19.0753C40.457 19.0753 35.9805 17.95 32.0191 15.9495C28.0577 17.95 23.5811 19.0753 18.8412 19.0753C18.0451 19.0753 17.2564 19.0446 16.4764 18.9817C16.1076 20.8387 15.913 22.7602 15.913 24.7255C15.913 30.6025 17.6427 36.0726 20.6222 40.6589C24.3128 40.8784 27.8177 41.7813 31.0137 43.2447C31.0576 43.2637 31.1 43.2828 31.1439 43.3033C31.223 43.3398 31.302 43.3764 31.381 43.4159C31.4381 43.4423 31.4952 43.4686 31.5508 43.4964C31.561 43.5008 31.5727 43.5067 31.583 43.5111C31.6547 43.5447 31.7249 43.5798 31.7952 43.615C31.8742 43.653 31.9532 43.6925 32.0337 43.7335C34.2668 42.6052 36.6639 41.755 39.1809 41.2296C39.1926 41.2267 39.2058 41.2238 39.2175 41.2208C39.2482 41.2135 39.2789 41.2091 39.3097 41.2018C39.8541 41.0906 40.4028 40.994 40.956 40.915C41.7638 40.7965 42.5847 40.7116 43.4145 40.6618C43.6706 40.2682 43.9179 39.8672 44.155 39.4604C44.2003 39.3828 44.2472 39.3038 44.2911 39.2248C44.4476 38.9526 44.5969 38.6789 44.7432 38.4024C44.9247 38.057 45.1003 37.7102 45.2686 37.359C45.4149 37.0546 45.5554 36.7473 45.6915 36.437C45.8393 36.096 45.9813 35.7551 46.1174 35.4068C46.1701 35.2736 46.2213 35.1404 46.2725 35.0044C46.6661 33.9536 47.0013 32.8751 47.2735 31.7703C47.831 29.5137 48.1266 27.1533 48.1266 24.724C48.1266 22.7587 47.932 20.8373 47.5632 18.9802L47.5603 18.9817ZM29.123 21.7724C30.6596 21.6787 31.8844 20.4538 31.9781 18.9173C31.981 18.8675 32.0556 18.8675 32.0586 18.9173C32.1522 20.4538 33.3771 21.6787 34.9136 21.7724C34.9634 21.7753 34.9634 21.8499 34.9136 21.8528C33.3771 21.9465 32.1522 23.1714 32.0586 24.7079C32.0556 24.7577 31.981 24.7577 31.9781 24.7079C31.8844 23.1714 30.6596 21.9465 29.123 21.8528C29.0732 21.8499 29.0732 21.7753 29.123 21.7724ZM26.6133 40.0662C26.2548 39.9228 25.8933 39.7867 25.5274 39.6565C25.2421 39.557 24.9553 39.4619 24.6655 39.3711C23.8285 39.1077 22.9709 38.8838 22.1017 38.7024C21.708 38.6189 21.3114 38.5443 20.9104 38.4799C21.2587 38.2282 21.6729 38.0628 22.1221 38.0146C22.2143 38.0043 22.308 37.9999 22.4016 37.9999C22.6182 37.9999 22.829 38.0263 23.0309 38.0775C23.0338 38.0775 23.0368 38.0804 23.0411 38.0804C23.0894 38.095 23.1377 38.1097 23.186 38.1243C23.1933 38.1243 23.2007 38.1287 23.208 38.1302C23.9924 38.3628 24.7577 38.6394 25.5026 38.9584C25.9811 39.1619 26.4509 39.3828 26.9104 39.6199C28.2903 40.3296 29.5825 41.1843 30.7693 42.1633C29.4537 41.3496 28.065 40.6472 26.6133 40.0662ZM27.0479 39.1341C26.5006 38.8399 25.9401 38.5619 25.3694 38.3058C24.3904 37.8624 23.3777 37.476 22.3387 37.1497C22.1485 37.0897 21.9553 37.0312 21.7621 36.977C22.0256 36.8336 22.3153 36.7355 22.6241 36.6916C22.7412 36.6755 22.8612 36.6668 22.9841 36.6668C23.3368 36.6668 23.6748 36.7385 23.9792 36.8673C24.0187 36.8834 24.0553 36.9009 24.0933 36.9185C25.1733 37.3824 26.205 37.9341 27.1855 38.5633C28.6576 39.5072 30.0084 40.6252 31.2054 41.8882C29.9118 40.8491 28.5215 39.9257 27.0494 39.1341H27.0479ZM27.1855 37.9633C25.9548 37.2185 24.6421 36.5936 23.265 36.1048C23.6631 35.8487 24.1372 35.7009 24.645 35.7009C25.2084 35.7009 25.7294 35.8824 26.1509 36.1897C26.1684 36.2043 26.186 36.2175 26.2035 36.2307C28.2889 37.7585 30.1474 39.576 31.722 41.6247C30.3844 40.2111 28.8596 38.976 27.184 37.9633H27.1855ZM31.4952 36.6404C31.1308 36.6038 30.7693 36.5307 30.4196 36.4209C30.1049 36.3214 29.8006 36.1941 29.5093 36.039C29.025 35.78 28.5801 35.4492 28.1938 35.0556L28.0108 34.8595C27.1343 33.8746 26.6557 32.6176 26.6557 31.2903C26.6557 29.963 27.1343 28.7074 28.0108 27.7225L28.1938 27.5264C28.8113 26.8957 29.581 26.423 30.4196 26.1581C30.7679 26.0499 31.1308 25.9752 31.4952 25.9386C31.6708 25.9211 31.8508 25.9123 32.0322 25.9123C32.2137 25.9123 32.3937 25.9211 32.5693 25.9386C32.9337 25.9752 33.2966 26.0484 33.6449 26.1581C33.8542 26.224 34.0605 26.303 34.2595 26.3952C34.858 26.6689 35.4068 27.0537 35.8707 27.5264L36.0536 27.7211C36.9287 28.7059 37.4087 29.963 37.4087 31.2888C37.4087 32.6146 36.9287 33.8732 36.0536 34.858L35.8707 35.0541C35.2532 35.6834 34.4834 36.156 33.6449 36.4209C33.5571 36.4487 33.4693 36.4736 33.3815 36.4956C33.2044 36.5409 33.0244 36.5775 32.8429 36.6053C32.7522 36.6185 32.6615 36.6302 32.5708 36.639C32.2181 36.6741 31.8493 36.6741 31.4966 36.639L31.4952 36.6404ZM32.3322 41.6247C33.9068 39.576 35.7653 37.7585 37.8507 36.2307C37.8682 36.2175 37.8858 36.2043 37.9034 36.1897C38.3248 35.8824 38.8458 35.7009 39.4092 35.7009C39.917 35.7009 40.3911 35.8502 40.7892 36.1048C39.4121 36.5936 38.1009 37.2199 36.8687 37.9633C35.1946 38.976 33.6683 40.2096 32.3308 41.6247H32.3322ZM36.8717 38.5619C37.8521 37.9326 38.8838 37.3809 39.9638 36.917C40.0019 36.8994 40.0384 36.8834 40.078 36.8658C40.3823 36.7355 40.7204 36.6653 41.0731 36.6653C41.1945 36.6653 41.316 36.6741 41.4331 36.6902C41.7418 36.7341 42.0316 36.8307 42.295 36.9755C42.1018 37.0297 41.9087 37.0882 41.7184 37.1482C40.6794 37.4746 39.6667 37.8609 38.6877 38.3043C38.117 38.5604 37.5565 38.8384 37.0092 39.1326C35.5371 39.9243 34.1468 40.8462 32.8532 41.8867C34.0502 40.6238 35.3995 39.5058 36.8731 38.5619H36.8717ZM41.954 38.7024C41.0833 38.8838 40.2272 39.1077 39.3902 39.3711C39.1004 39.4633 38.8136 39.5584 38.5282 39.6565C38.1638 39.7867 37.8009 39.9214 37.4424 40.0662C35.9907 40.6472 34.6019 41.3496 33.2864 42.1633C34.4732 41.1843 35.7653 40.3296 37.1453 39.6199C37.6048 39.3828 38.0746 39.1619 38.5531 38.9584C39.298 38.6394 40.0633 38.3628 40.8477 38.1302C40.8536 38.1272 40.8623 38.1258 40.8697 38.1243C40.9179 38.1097 40.9662 38.095 41.0145 38.0804C41.0189 38.0804 41.0218 38.0804 41.0248 38.0775C41.2267 38.0263 41.436 37.9999 41.654 37.9999C41.7477 37.9999 41.8428 38.0043 41.9335 38.0146C42.3828 38.0628 42.7969 38.2282 43.1452 38.4799C42.7443 38.5443 42.3491 38.6189 41.954 38.7024Z" fill="white"/>
<path d="M27.2103 31.5639C27.2703 32.6454 27.6859 33.6609 28.4001 34.4746C28.4293 34.4468 28.4586 34.4175 28.4879 34.3912C28.021 33.5848 27.7298 32.6146 27.6859 31.5654H27.2089L27.2103 31.5639Z" fill="white"/>
<path d="M29.7172 31.0166C29.7303 30.3245 29.7976 29.6732 29.9059 29.085C29.5606 28.9357 29.2313 28.7513 28.9225 28.5303C28.526 29.2415 28.2772 30.0947 28.2362 31.0166H29.7172Z" fill="white"/>
<path d="M28.4893 28.1893C28.4586 28.163 28.4308 28.1337 28.4015 28.1059C27.6874 28.9195 27.2718 29.9351 27.2103 31.0151H27.6874C27.7313 29.9644 28.0225 28.9942 28.4893 28.1893Z" fill="white"/>
</svg>
