<svg width="84" height="73" viewBox="0 0 84 73" fill="none" xmlns="http://www.w3.org/2000/svg">
<path d="M57.033 46.8511C55.2185 48.9528 53.2329 50.8978 51.0905 52.6683C50.0389 53.5375 48.9481 54.3675 47.8252 55.1476C45.9358 56.4585 43.9538 57.6447 41.8862 58.6849C39.8186 57.6447 37.8331 56.4585 35.9473 55.1476C35.8546 55.0799 35.7583 55.0158 35.6657 54.9517C35.6193 54.9161 35.573 54.884 35.5231 54.8519C35.3591 54.7344 35.1987 54.6168 35.0347 54.4993C34.9634 54.4458 34.8885 54.3924 34.8172 54.3354C34.5214 54.1217 34.2326 53.9008 33.9439 53.6799C33.7122 53.5018 33.4805 53.3202 33.2523 53.1349C33.0669 52.9889 32.8851 52.8392 32.7069 52.6896C30.5573 50.9156 28.561 48.9635 26.7394 46.8511C30.3042 47.3569 33.7442 48.2475 37.0203 49.4765C37.031 49.4765 37.0381 49.4836 37.0488 49.4872C37.1379 49.5228 37.227 49.5548 37.3162 49.5905C37.3518 49.6011 37.3875 49.6154 37.4231 49.6296C37.612 49.7009 37.7974 49.7757 37.9828 49.8469C38.0755 49.8826 38.1717 49.9217 38.2644 49.9609C38.3107 49.9787 38.3571 49.9966 38.4034 50.0179C39.5905 50.5024 40.7526 51.0332 41.8933 51.6067C43.4725 50.8088 45.0945 50.0963 46.7628 49.4729C50.0353 48.2475 53.4753 47.3569 57.0366 46.8511H57.033Z" fill="#9B1B2F"/>
<path d="M52.8943 71.5343C51.9318 71.9654 50.841 72.2005 49.7216 72.1827C47.4544 72.1506 45.5615 71.1033 44.4707 69.6C45.4225 69.3542 46.4242 69.2545 47.4687 69.3257C49.5612 69.4718 51.4541 70.2697 52.8907 71.5343H52.8943Z" fill="#9B1B2F"/>
<path d="M44.3709 67.8973C45.3084 68.0291 46.2995 67.9436 47.2477 67.6123C49.1691 66.9426 50.481 65.4287 50.9658 63.6938C50.0924 63.7152 49.219 63.8933 48.3599 64.2496C46.6381 64.9656 45.255 66.2694 44.3709 67.8973Z" fill="#9B1B2F"/>
<path d="M60.7618 68.809C60.3411 69.1296 59.8563 69.3647 59.3501 69.5678C58.8439 69.7708 58.3128 69.9275 57.7638 70.038C56.6587 70.2268 55.575 70.152 54.6161 69.867C53.6536 69.5856 52.8123 69.0904 52.135 68.4492C53.0262 68.036 53.9958 67.7581 55.0367 67.637C55.5608 67.5764 56.0777 67.5622 56.5803 67.5836C57.0865 67.6085 57.5749 67.6548 58.0597 67.7581C59.0222 67.954 59.9597 68.3459 60.7618 68.8125V68.809Z" fill="#9B1B2F"/>
<path d="M51.725 66.7856C52.6697 66.7465 53.6286 66.4829 54.502 65.9841C54.9405 65.7348 55.3362 65.4391 55.6855 65.1043C56.0349 64.773 56.3236 64.3882 56.5731 63.9999C57.0651 63.2091 57.3681 62.372 57.443 61.4458C57.0223 61.5598 56.5945 61.6631 56.1846 61.8305C55.7711 61.9944 55.3718 62.2081 54.9868 62.4753C54.1919 62.9883 53.5324 63.6223 52.9834 64.3526C52.438 65.0829 52.0067 65.9058 51.725 66.7856Z" fill="#9B1B2F"/>
<path d="M68.0126 64.7198C67.2676 65.4643 66.3336 66.0699 65.282 66.4546C64.7579 66.6577 64.2197 66.7646 63.6992 66.8394C63.4425 66.875 63.1787 66.8928 62.9114 66.8999C62.6476 66.9106 62.3945 66.8821 62.1414 66.8536C61.1397 66.7289 60.2235 66.4012 59.4464 65.9061C59.8421 65.614 60.2663 65.3575 60.719 65.1402C61.1718 64.9229 61.6566 64.7554 62.1592 64.5916C62.6583 64.4313 63.1645 64.328 63.6671 64.2603C64.1662 64.1855 64.6653 64.1605 65.1643 64.1784C66.1446 64.1926 67.1214 64.3921 68.009 64.7198H68.0126Z" fill="#9B1B2F"/>
<path d="M58.7512 64.3492C59.2075 64.2352 59.6603 64.0713 60.0987 63.8612C60.5372 63.651 60.965 63.4016 61.3393 63.0703C61.7207 62.7355 62.0629 62.3792 62.3445 61.991C62.6226 61.5955 62.8507 61.1823 63.0254 60.7584C63.3641 59.8857 63.4995 58.9915 63.414 58.0796C62.6083 58.4144 61.8526 58.8882 61.1753 59.5294C60.8402 59.8607 60.5194 60.192 60.252 60.5696C60.1166 60.7584 59.9918 60.9508 59.8813 61.1396C59.7743 61.3355 59.6496 61.5243 59.5498 61.7273C59.1327 62.5289 58.8618 63.423 58.7477 64.3492H58.7512Z" fill="#9B1B2F"/>
<path d="M65.7846 61.5031C64.2125 62.586 62.5763 63.5727 60.8688 64.4206L59.5783 65.0368C59.147 65.2363 58.7263 65.4643 58.2772 65.6282C57.3895 65.9737 56.5126 66.3584 55.6107 66.6612C52.0031 67.908 48.2245 68.6454 44.4173 68.8734L44.403 68.6347C48.1888 68.4067 51.9461 67.6729 55.5323 66.4332C56.4342 66.134 57.3004 65.7528 58.1845 65.4073C58.6301 65.2434 59.0507 65.019 59.4785 64.8195L60.7618 64.2068C62.4587 63.3661 64.0878 62.3829 65.6491 61.3071L65.7846 61.5031Z" fill="#9B1B2F"/>
<path d="M74.4113 59.3796C74.1083 59.8107 73.7661 60.2274 73.3633 60.5908C72.964 60.9577 72.5291 61.2997 72.0408 61.5775C71.556 61.8625 71.0569 62.0905 70.5471 62.2437C70.0409 62.4004 69.5419 62.5073 69.0357 62.5394C68.533 62.575 68.0482 62.5607 67.5741 62.4824C67.0964 62.404 66.6401 62.2722 66.2123 62.0941C66.551 61.7379 66.9324 61.4244 67.3317 61.1145C67.7345 60.8117 68.173 60.548 68.6328 60.3023C69.0998 60.06 69.5811 59.8677 70.0587 59.7038C70.54 59.5435 71.0319 59.4366 71.5167 59.3547C72.0016 59.2763 72.4971 59.2443 72.9819 59.2478C73.4631 59.2478 73.9444 59.2906 74.4149 59.3796H74.4113Z" fill="#9B1B2F"/>
<path d="M65.2392 60.6904C65.6705 60.5016 66.0983 60.27 66.4797 59.9744C66.8683 59.6823 67.2355 59.351 67.5492 58.9555C67.87 58.5673 68.1409 58.154 68.3405 57.7123C68.5473 57.2777 68.7006 56.836 68.7897 56.3765C68.8788 55.9205 68.9216 55.4681 68.9038 55.0157C68.8824 54.5597 68.8111 54.1109 68.6935 53.6763C68.3227 53.9078 67.9841 54.1892 67.6525 54.4849C67.3246 54.7877 67.0323 55.1332 66.7506 55.5037C66.4726 55.8813 66.2409 56.2838 66.0377 56.6899C65.8381 57.0996 65.6812 57.5378 65.5493 57.9688C65.421 58.4034 65.3354 58.8594 65.2855 59.3153C65.232 59.7677 65.2142 60.2273 65.2427 60.6904H65.2392Z" fill="#9B1B2F"/>
<path d="M79.7372 52.9888C79.5162 53.4661 79.2417 53.9292 78.9244 54.3709C78.5929 54.802 78.2186 55.2116 77.8015 55.5785C77.3666 55.9419 76.9174 56.2518 76.454 56.5012C75.9799 56.7434 75.4987 56.9322 75.021 57.064C74.0407 57.3098 73.0817 57.3383 72.1584 57.1317C72.7074 56.3195 73.3883 55.575 74.2189 54.9373C75.8836 53.6585 77.8158 52.9923 79.7408 52.9923L79.7372 52.9888Z" fill="#9B1B2F"/>
<path d="M70.9464 55.9242C71.7342 55.4042 72.4187 54.6774 72.907 53.8011C73.9016 52.0271 73.866 50.018 73.0853 48.4043C72.7609 48.7 72.465 49.0241 72.2083 49.3875C71.9374 49.7401 71.7021 50.1284 71.5025 50.5523C71.2922 50.9691 71.1318 51.4037 71.0141 51.849C70.8858 52.2872 70.8038 52.736 70.7646 53.1955C70.6648 54.0932 70.7432 55.0372 70.9464 55.9242Z" fill="#9B1B2F"/>
<path d="M83.8224 45.7363C83.5693 46.7587 83.0845 47.7633 82.3822 48.636C81.6764 49.5159 80.8173 50.1749 79.9083 50.5953C79.6801 50.7021 79.4555 50.7948 79.2238 50.8731C78.9885 50.9479 78.7533 51.0085 78.518 51.0584C78.0474 51.1545 77.5769 51.1937 77.1135 51.183C77.3024 50.7271 77.5377 50.2925 77.8122 49.8721C78.076 49.4446 78.3897 49.0386 78.7426 48.6538C80.1435 47.0936 81.9366 46.0926 83.8188 45.7399L83.8224 45.7363Z" fill="#9B1B2F"/>
<path d="M75.709 50.2139C76.0405 49.8826 76.3506 49.5122 76.6144 49.1025C76.8675 48.6893 77.0885 48.244 77.2525 47.7738C77.9084 45.8502 77.5199 43.8802 76.4469 42.4375C75.9264 43.1357 75.5307 43.9337 75.2812 44.8313C75.0316 45.7362 74.9532 46.6517 75.0281 47.56C75.0459 47.788 75.078 48.016 75.1172 48.244C75.1528 48.4684 75.1992 48.6893 75.2527 48.9137C75.3632 49.359 75.5165 49.7936 75.7054 50.2211L75.709 50.2139Z" fill="#9B1B2F"/>
<path d="M80.2505 44.1366C79.4663 45.875 78.5751 47.5635 77.5555 49.1772C76.5467 50.7944 75.4238 52.3405 74.2046 53.8081C71.7628 56.7399 68.9252 59.3368 65.7882 61.5062L65.6527 61.3103C68.7719 59.1551 71.5952 56.5689 74.0228 53.6585C75.2349 52.2015 76.3506 50.6626 77.3559 49.0561C78.3683 47.453 79.2595 45.7752 80.0366 44.0439L80.2541 44.1401L80.2505 44.1366Z" fill="#9B1B2F"/>
<path d="M79.2738 45.9534C80.0402 45.4404 80.7175 44.76 81.2451 43.93C82.3074 42.2593 82.5569 40.3108 82.0971 38.5332C81.3306 39.0462 80.6533 39.723 80.1257 40.5566C79.0634 42.2273 78.8139 44.1758 79.2738 45.9534Z" fill="#9B1B2F"/>
<path d="M30.9316 71.5343C31.8941 71.9654 32.985 72.2005 34.1043 72.1827C36.3715 72.1506 38.2644 71.1033 39.3552 69.6C38.4034 69.3542 37.4017 69.2545 36.3572 69.3257C34.2647 69.4718 32.3718 70.2697 30.9352 71.5343H30.9316Z" fill="#9B1B2F"/>
<path d="M39.4515 67.8973C38.5139 68.0291 37.5229 67.9436 36.5747 67.6123C34.6533 66.9426 33.3414 65.4287 32.8566 63.6938C33.73 63.7152 34.6034 63.8933 35.4625 64.2496C37.1843 64.9656 38.5674 66.2694 39.4515 67.8973Z" fill="#9B1B2F"/>
<path d="M23.0641 68.809C23.4848 69.1296 23.9696 69.3647 24.4758 69.5678C24.982 69.7708 25.5132 69.9275 26.0621 70.038C27.1672 70.2268 28.2509 70.152 29.2098 69.867C30.1723 69.5856 31.0136 69.0904 31.6909 68.4492C30.7997 68.036 29.8301 67.7581 28.7892 67.637C28.2652 67.5764 27.7483 67.5622 27.2456 67.5836C26.7394 67.6085 26.2511 67.6548 25.7663 67.7581C24.8038 67.954 23.8662 68.3459 23.0641 68.8125V68.809Z" fill="#9B1B2F"/>
<path d="M32.0973 66.7856C31.1526 66.7465 30.1937 66.4829 29.3203 65.9841C28.8819 65.7348 28.4862 65.4391 28.1368 65.1043C27.7875 64.773 27.4987 64.3882 27.2492 63.9999C26.7573 63.2091 26.4543 62.372 26.3794 61.4458C26.8 61.5598 27.2278 61.6631 27.6378 61.8305C28.0513 61.9944 28.4505 62.2081 28.8355 62.4753C29.6305 62.9883 30.29 63.6223 30.8389 64.3526C31.3844 65.0829 31.8157 65.9058 32.0973 66.7856Z" fill="#9B1B2F"/>
<path d="M15.8098 64.7198C16.5549 65.4643 17.4888 66.0699 18.5404 66.4546C19.0645 66.6577 19.6027 66.7646 20.1232 66.8394C20.3799 66.875 20.6437 66.8928 20.911 66.8999C21.1748 66.9106 21.4279 66.8821 21.681 66.8536C22.6827 66.7289 23.5989 66.4012 24.376 65.9061C23.9803 65.614 23.5561 65.3575 23.1034 65.1402C22.6506 64.9229 22.1658 64.7554 21.6632 64.5916C21.1641 64.4313 20.6579 64.328 20.1553 64.2603C19.6562 64.1855 19.1571 64.1605 18.6581 64.1784C17.6778 64.1926 16.701 64.3921 15.8134 64.7198H15.8098Z" fill="#9B1B2F"/>
<path d="M25.0711 64.3492C24.6148 64.2352 24.1621 64.0713 23.7236 63.8612C23.2852 63.651 22.8574 63.4016 22.4831 63.0703C22.1017 62.7355 21.7594 62.3792 21.4778 61.991C21.1998 61.5955 20.9716 61.1823 20.797 60.7584C20.4583 59.8857 20.3228 58.9915 20.4084 58.0796C21.214 58.4144 21.9698 58.8882 22.6471 59.5294C22.9822 59.8607 23.303 60.192 23.5704 60.5696C23.7058 60.7584 23.8306 60.9508 23.9411 61.1396C24.048 61.3355 24.1728 61.5243 24.2726 61.7273C24.6897 62.5289 24.9606 63.423 25.0747 64.3492H25.0711Z" fill="#9B1B2F"/>
<path d="M18.0378 61.5031C19.6099 62.586 21.2461 63.5727 22.9536 64.4206L24.2441 65.0368C24.6754 65.2363 25.0961 65.4643 25.5452 65.6282C26.4329 65.9737 27.3098 66.3584 28.2117 66.6612C31.8192 67.908 35.5979 68.6454 39.4051 68.8734L39.4194 68.6347C35.6336 68.4067 31.8763 67.6729 28.2901 66.4332C27.3882 66.134 26.522 65.7528 25.6379 65.4073C25.1923 65.2434 24.7717 65.019 24.3439 64.8195L23.0606 64.2068C21.3637 63.3661 19.7346 62.3829 18.1732 61.3071L18.0378 61.5031Z" fill="#9B1B2F"/>
<path d="M9.41458 59.3796C9.71758 59.8107 10.0598 60.2274 10.4626 60.5908C10.8619 60.9577 11.2968 61.2997 11.7852 61.5775C12.27 61.8625 12.769 62.0905 13.2788 62.2437C13.785 62.4004 14.2841 62.5073 14.7903 62.5394C15.2929 62.575 15.7777 62.5607 16.2518 62.4824C16.7295 62.404 17.1858 62.2722 17.6136 62.0941C17.2749 61.7379 16.8935 61.4244 16.4942 61.1145C16.0914 60.8117 15.653 60.548 15.1931 60.3023C14.7261 60.06 14.2449 59.8677 13.7672 59.7038C13.2859 59.5435 12.794 59.4366 12.3092 59.3547C11.8244 59.2763 11.3289 59.2443 10.8441 59.2478C10.3628 59.2478 9.88156 59.2906 9.41101 59.3796H9.41458Z" fill="#9B1B2F"/>
<path d="M18.5833 60.6904C18.1519 60.5016 17.7241 60.27 17.3427 59.9744C16.9541 59.6823 16.587 59.351 16.2733 58.9555C15.9524 58.5673 15.6815 58.154 15.4819 57.7123C15.2751 57.2777 15.1218 56.836 15.0327 56.3765C14.9436 55.9205 14.9008 55.4681 14.9187 55.0157C14.94 54.5597 15.0113 54.1109 15.129 53.6763C15.4997 53.9078 15.8384 54.1892 16.1699 54.4849C16.4978 54.7877 16.7902 55.1332 17.0718 55.5037C17.3498 55.8813 17.5815 56.2838 17.7847 56.6899C17.9844 57.0996 18.1412 57.5378 18.2731 57.9688C18.4014 58.4034 18.487 58.8594 18.5369 59.3153C18.5904 59.7677 18.6082 60.2273 18.5797 60.6904H18.5833Z" fill="#9B1B2F"/>
<path d="M4.08523 52.9888C4.30625 53.4661 4.58074 53.9292 4.898 54.3709C5.22953 54.802 5.60383 55.2116 6.02091 55.5785C6.45581 55.9419 6.90498 56.2518 7.3684 56.5012C7.84251 56.7434 8.32376 56.9322 8.80144 57.064C9.78176 57.3098 10.7407 57.3383 11.664 57.1317C11.115 56.3195 10.4341 55.575 9.60352 54.9373C7.93876 53.6585 6.00665 52.9923 4.08167 52.9923L4.08523 52.9888Z" fill="#9B1B2F"/>
<path d="M12.876 55.9242C12.0882 55.4042 11.4037 54.6774 10.9153 53.8011C9.92077 52.0271 9.95642 50.018 10.7371 48.4043C11.0615 48.7 11.3574 49.0241 11.614 49.3875C11.885 49.7401 12.1202 50.1284 12.3199 50.5523C12.5302 50.9691 12.6906 51.4037 12.8082 51.849C12.9366 52.2872 13.0186 52.736 13.0578 53.1955C13.1576 54.0932 13.0792 55.0372 12.876 55.9242Z" fill="#9B1B2F"/>
<path d="M0 45.7363C0.2531 46.7587 0.737911 47.7633 1.44017 48.636C2.146 49.5159 3.00511 50.1749 3.91413 50.5953C4.14228 50.7021 4.36686 50.7948 4.59857 50.8731C4.83385 50.9479 5.06913 51.0085 5.3044 51.0584C5.77495 51.1545 6.2455 51.1937 6.70893 51.183C6.51999 50.7271 6.28472 50.2925 6.01023 49.8721C5.74644 49.4446 5.43273 49.0386 5.07982 48.6538C3.67886 47.0936 1.88577 46.0926 0.00356555 45.7399L0 45.7363Z" fill="#9B1B2F"/>
<path d="M8.11343 50.2139C7.7819 49.8826 7.47176 49.5122 7.20797 49.1025C6.95487 48.6893 6.73385 48.244 6.56987 47.7738C5.91395 45.8502 6.30251 43.8802 7.37552 42.4375C7.89597 43.1357 8.29167 43.9337 8.5412 44.8313C8.79074 45.7362 8.86916 46.6517 8.7943 47.56C8.77648 47.788 8.74439 48.016 8.70518 48.244C8.66953 48.4684 8.62319 48.6893 8.56972 48.9137C8.45921 49.359 8.30593 49.7936 8.11699 50.2211L8.11343 50.2139Z" fill="#9B1B2F"/>
<path d="M3.57192 44.1366C4.35618 45.875 5.24737 47.5635 6.2669 49.1772C7.27574 50.7944 8.39864 52.3405 9.6178 53.8081C12.0597 56.7399 14.8972 59.3368 18.0343 61.5062L18.1697 61.3103C15.0505 59.1551 12.2272 56.5689 9.79961 53.6585C8.58758 52.2015 7.4718 50.6626 6.46653 49.0561C5.45413 47.453 4.56293 45.7752 3.78581 44.0439L3.56836 44.1401L3.57192 44.1366Z" fill="#9B1B2F"/>
<path d="M4.54867 45.9534C3.78224 45.4404 3.10493 44.76 2.57734 43.93C1.51504 42.2593 1.2655 40.3108 1.72536 38.5332C2.49179 39.0462 3.1691 39.723 3.69669 40.5566C4.75899 42.2273 5.00853 44.1758 4.54867 45.9534Z" fill="#9B1B2F"/>
<path d="M41.9112 69.9345C42.5235 69.9345 43.0198 69.4385 43.0198 68.8266C43.0198 68.2148 42.5235 67.7188 41.9112 67.7188C41.2989 67.7188 40.8026 68.2148 40.8026 68.8266C40.8026 69.4385 41.2989 69.9345 41.9112 69.9345Z" fill="#9B1B2F"/>
<path d="M44.0465 33.3748C45.0518 32.9224 45.9465 32.1637 46.6488 31.184C46.221 30.8741 45.7683 30.6069 45.2906 30.3896C44.9876 31.6079 44.5634 32.6303 44.0465 33.3748Z" fill="#9B1B2F"/>
<path d="M47.8679 30.9739C47.9178 31.0203 47.9677 31.0701 48.0176 31.1164C49.219 29.7521 49.9177 28.0422 50.0175 26.229H49.2154C49.1441 27.9923 48.6522 29.6238 47.8679 30.9775V30.9739Z" fill="#9B1B2F"/>
<path d="M50.0175 25.3064C49.9177 23.4932 49.219 21.7833 48.0141 20.4189C47.9642 20.4653 47.9179 20.5151 47.8644 20.5579C48.6486 21.9115 49.1406 23.5431 49.2119 25.3064H50.0139H50.0175Z" fill="#9B1B2F"/>
<path d="M46.6488 20.3511C45.9465 19.3715 45.0518 18.6091 44.0465 18.1567C44.5598 18.9048 44.984 19.9236 45.2906 21.1419C45.7683 20.9246 46.221 20.6575 46.6524 20.3475L46.6488 20.3511Z" fill="#9B1B2F"/>
<path d="M39.5085 21.5162C41.0556 21.9935 42.7667 21.9935 44.3138 21.5162C44.3459 21.5055 44.378 21.4948 44.4101 21.4841C43.8361 19.1366 42.838 17.6938 41.9111 17.6938C40.9843 17.6938 39.9826 19.1366 39.4122 21.4841C39.4443 21.4948 39.4764 21.5055 39.5085 21.5162Z" fill="#9B1B2F"/>
<path d="M45.8039 25.3063H48.2921C48.2244 23.7567 47.8073 22.3247 47.1372 21.1313C46.6167 21.5018 46.0642 21.8117 45.4831 22.0611C45.6685 23.0514 45.779 24.1415 45.8004 25.3063H45.8039Z" fill="#9B1B2F"/>
<path d="M39.7794 18.1606C38.7706 18.6131 37.8794 19.3718 37.1771 20.355C37.6049 20.6649 38.0612 20.9321 38.5389 21.1494C38.8419 19.9311 39.2661 18.9087 39.783 18.1642L39.7794 18.1606Z" fill="#9B1B2F"/>
<path d="M44.6026 22.3887C44.6026 22.3887 44.5919 22.3887 44.5883 22.3922C42.863 22.9266 40.9629 22.9266 39.2376 22.3922C39.234 22.3922 39.2269 22.3922 39.2233 22.3887C39.0665 23.2686 38.9631 24.2482 38.9417 25.3062H44.8842C44.8628 24.2482 44.7594 23.2686 44.6026 22.3887Z" fill="#9B1B2F"/>
<path d="M39.2233 29.1431C39.2233 29.1431 39.234 29.1431 39.2376 29.1395C40.1003 28.8724 40.9986 28.737 41.9112 28.737C42.8238 28.737 43.7257 28.8724 44.5883 29.1395C44.5919 29.1395 44.599 29.1395 44.6026 29.1431C44.7594 28.2632 44.8628 27.2836 44.8842 26.2256H38.9417C38.9631 27.2836 39.0665 28.2632 39.2233 29.1431Z" fill="#9B1B2F"/>
<path d="M45.8039 26.2256C45.7825 27.3904 45.6684 28.4805 45.4866 29.4708C46.0677 29.7202 46.6238 30.0337 47.1407 30.4041C47.8073 29.2072 48.2244 27.7752 48.2957 26.2256H45.8075H45.8039Z" fill="#9B1B2F"/>
<path d="M44.3138 30.0157C42.7667 29.5384 41.0556 29.5384 39.5085 30.0157C39.4764 30.0264 39.4443 30.0371 39.4122 30.0478C39.9862 32.3953 40.9843 33.838 41.9111 33.838C42.838 33.838 43.8397 32.3953 44.4101 30.0478C44.378 30.0371 44.3459 30.0264 44.3138 30.0157Z" fill="#9B1B2F"/>
<path d="M38.0184 26.2256H35.5302C35.5979 27.7752 36.0186 29.2072 36.6852 30.4041C37.2021 30.0337 37.7582 29.7237 38.3393 29.4708C38.1539 28.4805 38.0434 27.3904 38.022 26.2256H38.0184Z" fill="#9B1B2F"/>
<path d="M37.1771 31.184C37.8794 32.1637 38.7741 32.926 39.7794 33.3748C39.2661 32.6268 38.8419 31.6079 38.5353 30.3896C38.0576 30.6069 37.6049 30.8741 37.1771 31.184Z" fill="#9B1B2F"/>
<path d="M68.0161 5.09048C66.7043 5.19735 65.3817 5.25078 64.0414 5.25078C56.0741 5.25078 48.5452 3.35922 41.8862 0C35.2272 3.35922 27.6984 5.25078 19.7311 5.25078C18.3943 5.25078 17.0646 5.19735 15.7563 5.09048C15.1361 8.21103 14.8081 11.4384 14.8081 14.7407C14.8081 24.6117 17.717 33.8059 22.7255 41.5076C28.9282 41.878 34.8208 43.3956 40.1965 45.85C40.2714 45.882 40.3427 45.9141 40.414 45.9497C40.5459 46.0103 40.6813 46.0744 40.8132 46.1385C40.9095 46.1813 41.0057 46.2276 41.0984 46.2739C41.1162 46.281 41.1341 46.2917 41.1519 46.2988C41.2731 46.3558 41.3907 46.4128 41.5084 46.4734C41.6403 46.5375 41.7757 46.6052 41.9076 46.6728C45.6613 44.7777 49.6931 43.3492 53.9245 42.4658C53.9459 42.4622 53.9673 42.4551 53.9851 42.4516C54.035 42.4409 54.0885 42.4302 54.1384 42.4195C55.0545 42.2343 55.9743 42.0704 56.9082 41.9386C58.2664 41.7391 59.646 41.5966 61.0398 41.5147C61.4712 40.8521 61.8847 40.1788 62.2839 39.4984C62.3588 39.3666 62.4372 39.2348 62.5121 39.103C62.7759 38.6471 63.0254 38.1875 63.2749 37.7209C63.5815 37.1402 63.8738 36.5596 64.159 35.9682C64.405 35.4553 64.6402 34.9423 64.8684 34.4186C65.1179 33.8451 65.3568 33.2716 65.5849 32.6874C65.674 32.463 65.7596 32.2385 65.8451 32.0105C66.5082 30.2472 67.0714 28.434 67.5277 26.5781C68.4653 22.7878 68.9643 18.823 68.9643 14.7407C68.9643 11.4384 68.6364 8.21103 68.0161 5.09048ZM37.0203 9.77843C39.6048 9.62169 41.6616 7.5627 41.8185 4.98361C41.8221 4.89812 41.9468 4.89812 41.954 4.98361C42.1108 7.56626 44.1713 9.62169 46.7522 9.77843C46.8377 9.78199 46.8377 9.90667 46.7522 9.91379C44.1677 10.0705 42.1108 12.1295 41.954 14.7086C41.9504 14.7941 41.8256 14.7941 41.8185 14.7086C41.6616 12.126 39.6012 10.0705 37.0203 9.91379C36.9347 9.91023 36.9347 9.78555 37.0203 9.77843ZM32.8031 40.5101C32.2007 40.2679 31.5911 40.0399 30.978 39.8226C30.5003 39.6552 30.0155 39.4949 29.5307 39.3417C28.1226 38.9 26.6824 38.5224 25.2208 38.2196C24.5578 38.0771 23.8912 37.956 23.2174 37.8455C23.8021 37.4216 24.5008 37.1438 25.2529 37.0654C25.4062 37.0476 25.5631 37.0405 25.7235 37.0405C26.0871 37.0405 26.44 37.0868 26.7822 37.1723C26.7858 37.1723 26.7929 37.1758 26.8 37.1758C26.882 37.2008 26.964 37.2257 27.0425 37.2471C27.0567 37.2471 27.0674 37.2542 27.0781 37.2578C28.3971 37.6496 29.684 38.1127 30.9352 38.6506C31.7408 38.9926 32.5287 39.3631 33.3022 39.762C35.6229 40.9518 37.7938 42.391 39.7901 44.0332C37.58 42.6653 35.245 41.4862 32.8031 40.5101ZM33.5339 38.9427C32.6142 38.4476 31.6695 37.9809 30.7106 37.5499C29.0637 36.8054 27.3633 36.157 25.6165 35.6084C25.2957 35.5087 24.9713 35.409 24.6469 35.3163C25.089 35.0741 25.5773 34.9102 26.0942 34.839C26.2903 34.8105 26.4935 34.7962 26.7002 34.7962C27.2956 34.7962 27.8588 34.9174 28.3721 35.1347C28.4398 35.1632 28.5005 35.1917 28.5646 35.2201C30.3791 36.0003 32.1151 36.9265 33.7621 37.9809C36.2396 39.5661 38.5068 41.447 40.5209 43.5665C38.3464 41.821 36.0079 40.2714 33.5339 38.9392V38.9427ZM33.7656 36.9763C31.6945 35.726 29.4915 34.6751 27.1743 33.8522C27.8445 33.4248 28.6395 33.1718 29.495 33.1718C30.4397 33.1718 31.3166 33.4782 32.026 33.9947C32.0545 34.0197 32.0866 34.041 32.1151 34.0624C35.6193 36.6272 38.7456 39.6837 41.3943 43.1248C39.1485 40.7488 36.5818 38.6756 33.7656 36.9728V36.9763ZM41.0093 34.7571C40.3961 34.6965 39.7866 34.5718 39.1984 34.3866C38.6708 34.2192 38.1575 34.0054 37.6691 33.7454C36.8563 33.3108 36.1077 32.7551 35.4589 32.0925L35.1523 31.7647C33.6801 30.1119 32.8744 27.9994 32.8744 25.7694C32.8744 23.5395 33.6801 21.4306 35.1523 19.7777L35.4589 19.45C36.4963 18.392 37.7903 17.5976 39.2019 17.1523C39.7866 16.9706 40.3961 16.846 41.0093 16.7854C41.3052 16.7569 41.6082 16.7427 41.9112 16.7427C42.2142 16.7427 42.5208 16.7569 42.8131 16.7854C43.4262 16.846 44.0358 16.9706 44.6204 17.1559C44.9733 17.2663 45.3191 17.3981 45.6542 17.5513C46.663 18.0108 47.5827 18.6556 48.3634 19.45L48.67 19.7777C50.1423 21.4306 50.9479 23.543 50.9479 25.7694C50.9479 27.9959 50.1423 30.1119 48.67 31.7647L48.3634 32.0925C47.3261 33.1505 46.0321 33.9449 44.6204 34.3901C44.4743 34.4365 44.3245 34.4792 44.1748 34.5148C43.8754 34.5932 43.5724 34.6537 43.2694 34.7001C43.1161 34.7214 42.9628 34.7428 42.8095 34.7571C42.2177 34.8141 41.5975 34.8141 41.0022 34.7571H41.0093ZM42.4174 43.1284C45.066 39.6872 48.1888 36.6308 51.6965 34.066C51.725 34.0446 51.7571 34.0197 51.7856 33.9983C52.495 33.4818 53.372 33.1754 54.3166 33.1754C55.1722 33.1754 55.9671 33.4248 56.6373 33.8558C54.3202 34.6787 52.1172 35.7296 50.046 36.9799C47.2298 38.6827 44.6632 40.7559 42.4174 43.1319V43.1284ZM50.046 37.9845C51.6929 36.9265 53.429 36.0003 55.2435 35.2237C55.3076 35.1952 55.3682 35.1667 55.436 35.1382C55.9493 34.9209 56.5161 34.7998 57.1079 34.7998C57.3146 34.7998 57.5142 34.814 57.7139 34.8425C58.2343 34.9138 58.7191 35.0812 59.1612 35.3199C58.8368 35.4125 58.5124 35.5087 58.1916 35.612C56.4448 36.1606 54.7444 36.8089 53.0975 37.5534C52.1385 37.9845 51.1974 38.4511 50.2742 38.9463C47.8002 40.275 45.4617 41.8246 43.2872 43.5737C45.3013 41.4506 47.5685 39.5732 50.046 37.988V37.9845ZM58.5944 38.2196C57.1292 38.5259 55.6926 38.9 54.2845 39.3417C53.7962 39.4949 53.3149 39.6552 52.8372 39.8226C52.2241 40.0399 51.6145 40.2679 51.0121 40.5101C48.5738 41.4862 46.2388 42.6653 44.0251 44.0332C46.0214 42.391 48.1923 40.9518 50.513 39.762C51.2866 39.3631 52.0744 38.9926 52.88 38.6506C54.1313 38.1163 55.4217 37.6496 56.7371 37.2578C56.7478 37.2542 56.7621 37.2506 56.7728 37.2471C56.8548 37.2221 56.9367 37.1972 57.0152 37.1758C57.0223 37.1758 57.0294 37.1758 57.033 37.1723C57.3717 37.0868 57.7246 37.0405 58.0917 37.0405C58.2486 37.0405 58.409 37.0476 58.5623 37.0654C59.318 37.1473 60.0132 37.4252 60.5978 37.8455C59.924 37.956 59.2574 38.0771 58.5944 38.2196Z" fill="#9B1B2F"/>
<path d="M33.8049 26.2252C33.9047 28.042 34.6034 29.7483 35.8047 31.1127C35.8546 31.0664 35.901 31.0165 35.9544 30.9702C35.1702 29.6165 34.6782 27.985 34.6069 26.2217H33.8049V26.2252Z" fill="#9B1B2F"/>
<path d="M38.0184 25.3063C38.0398 24.1415 38.1539 23.0514 38.3357 22.0611C37.7546 21.8117 37.2021 21.4983 36.6816 21.1313C36.015 22.3283 35.5979 23.7603 35.5302 25.3063H38.0184Z" fill="#9B1B2F"/>
<path d="M35.958 20.5579C35.9081 20.5116 35.8582 20.4653 35.8083 20.4189C34.6069 21.7833 33.9082 23.4932 33.8049 25.3064H34.6069C34.6782 23.5431 35.1702 21.9115 35.9544 20.5579H35.958Z" fill="#9B1B2F"/>
</svg>
